<svg width="1280" height="720" xmlns="http://www.w3.org/2000/svg" xmlns:xlink="http://www.w3.org/1999/xlink" overflow="hidden"><defs><clipPath id="clip0"><rect x="0" y="0" width="1280" height="720"/></clipPath><clipPath id="clip1"><rect x="784" y="675" width="93" height="31"/></clipPath><clipPath id="clip2"><rect x="784" y="675" width="93" height="31"/></clipPath><clipPath id="clip3"><rect x="784" y="675" width="93" height="31"/></clipPath></defs><g clip-path="url(#clip0)"><rect x="0" y="0" width="1280" height="720" fill="#FFFFFF"/><path d="M9 474.73C9 463.833 17.8332 455 28.7295 455L1252.27 455C1263.17 455 1272 463.833 1272 474.73L1272 692.27C1272 703.167 1263.17 712 1252.27 712L28.7295 712C17.8332 712 9 703.167 9 692.27Z" stroke="#000000" stroke-width="4" stroke-linecap="square" stroke-miterlimit="8" stroke-dasharray="12 4" fill="none" fill-rule="evenodd"/><path d="M9 52.0156C9 34.8862 22.8862 21 40.0156 21L1240.98 21C1258.11 21 1272 34.8862 1272 52.0156L1272 393.984C1272 411.114 1258.11 425 1240.98 425L40.0156 425C22.8862 425 9 411.114 9 393.984Z" stroke="#000000" stroke-width="4" stroke-linecap="square" stroke-miterlimit="8" stroke-dasharray="12 4" fill="none" fill-rule="evenodd"/><path d="M41.7392 98.204 107.521 98.204 107.521 146.598 41.7392 146.598Z" fill="#A5A5A5" fill-rule="evenodd"/><path d="M107.521 98.204 179.659 98.204 179.659 146.598 107.521 146.598Z" fill="#A5A5A5" fill-rule="evenodd"/><path d="M179.659 98.204 257.721 98.204 257.721 146.598 179.659 146.598Z" fill="#A5A5A5" fill-rule="evenodd"/><path d="M257.721 98.204 335.783 98.204 335.783 146.598 257.721 146.598Z" fill="#A5A5A5" fill-rule="evenodd"/><path d="M41.7392 146.598 107.521 146.598 107.521 188.198 41.7392 188.198Z" fill="#E1E1E1" fill-rule="evenodd"/><path d="M107.521 146.598 179.659 146.598 179.659 188.198 107.521 188.198Z" fill="#E1E1E1" fill-rule="evenodd"/><path d="M179.659 146.598 257.721 146.598 257.721 188.198 179.659 188.198Z" fill="#E1E1E1" fill-rule="evenodd"/><path d="M257.721 146.598 335.783 146.598 335.783 188.198 257.721 188.198Z" fill="#E1E1E1" fill-rule="evenodd"/><path d="M41.7392 188.198 107.521 188.198 107.521 229.798 41.7392 229.798Z" fill="#F0F0F0" fill-rule="evenodd"/><path d="M107.521 188.198 179.659 188.198 179.659 229.798 107.521 229.798Z" fill="#F0F0F0" fill-rule="evenodd"/><path d="M179.659 188.198 257.721 188.198 257.721 229.798 179.659 229.798Z" fill="#F0F0F0" fill-rule="evenodd"/><path d="M257.721 188.198 335.783 188.198 335.783 229.798 257.721 229.798Z" fill="#F0F0F0" fill-rule="evenodd"/><path d="M41.7392 229.798 107.521 229.798 107.521 271.398 41.7392 271.398Z" fill="#E1E1E1" fill-rule="evenodd"/><path d="M107.521 229.798 179.659 229.798 179.659 271.398 107.521 271.398Z" fill="#E1E1E1" fill-rule="evenodd"/><path d="M179.659 229.798 257.721 229.798 257.721 271.398 179.659 271.398Z" fill="#E1E1E1" fill-rule="evenodd"/><path d="M257.721 229.798 335.783 229.798 335.783 271.398 257.721 271.398Z" fill="#E1E1E1" fill-rule="evenodd"/><path d="M41.7392 271.398 107.521 271.398 107.521 312.998 41.7392 312.998Z" fill="#F0F0F0" fill-rule="evenodd"/><path d="M107.521 271.398 179.659 271.398 179.659 312.998 107.521 312.998Z" fill="#F0F0F0" fill-rule="evenodd"/><path d="M179.659 271.398 257.721 271.398 257.721 312.998 179.659 312.998Z" fill="#F0F0F0" fill-rule="evenodd"/><path d="M257.721 271.398 335.783 271.398 335.783 312.998 257.721 312.998Z" fill="#F0F0F0" fill-rule="evenodd"/><path d="M41.7392 312.998 107.521 312.998 107.521 354.598 41.7392 354.598Z" fill="#E1E1E1" fill-rule="evenodd"/><path d="M107.521 312.998 179.659 312.998 179.659 354.598 107.521 354.598Z" fill="#E1E1E1" fill-rule="evenodd"/><path d="M179.659 312.998 257.721 312.998 257.721 354.598 179.659 354.598Z" fill="#E1E1E1" fill-rule="evenodd"/><path d="M257.721 312.998 335.783 312.998 335.783 354.598 257.721 354.598Z" fill="#E1E1E1" fill-rule="evenodd"/><path d="M41.7392 354.598 107.521 354.598 107.521 396.198 41.7392 396.198Z" fill="#F0F0F0" fill-rule="evenodd"/><path d="M107.521 354.598 179.659 354.598 179.659 396.198 107.521 396.198Z" fill="#F0F0F0" fill-rule="evenodd"/><path d="M179.659 354.598 257.721 354.598 257.721 396.198 179.659 396.198Z" fill="#F0F0F0" fill-rule="evenodd"/><path d="M257.721 354.598 335.783 354.598 335.783 396.198 257.721 396.198Z" fill="#F0F0F0" fill-rule="evenodd"/><path d="M107.521 97.5373 107.521 396.865" stroke="#FFFFFF" stroke-width="1.33333" stroke-linejoin="round" stroke-miterlimit="10" fill="none" fill-rule="evenodd"/><path d="M179.659 97.5373 179.659 396.865" stroke="#FFFFFF" stroke-width="1.33333" stroke-linejoin="round" stroke-miterlimit="10" fill="none" fill-rule="evenodd"/><path d="M257.721 97.5373 257.721 396.865" stroke="#FFFFFF" stroke-width="1.33333" stroke-linejoin="round" stroke-miterlimit="10" fill="none" fill-rule="evenodd"/><path d="M41.0725 146.598 336.45 146.598" stroke="#FFFFFF" stroke-width="4" stroke-linejoin="round" stroke-miterlimit="10" fill="none" fill-rule="evenodd"/><path d="M41.0725 188.198 336.45 188.198" stroke="#FFFFFF" stroke-width="1.33333" stroke-linejoin="round" stroke-miterlimit="10" fill="none" fill-rule="evenodd"/><path d="M41.0725 229.798 336.45 229.798" stroke="#FFFFFF" stroke-width="1.33333" stroke-linejoin="round" stroke-miterlimit="10" fill="none" fill-rule="evenodd"/><path d="M41.0725 271.398 336.45 271.398" stroke="#FFFFFF" stroke-width="1.33333" stroke-linejoin="round" stroke-miterlimit="10" fill="none" fill-rule="evenodd"/><path d="M41.0725 312.998 336.45 312.998" stroke="#FFFFFF" stroke-width="1.33333" stroke-linejoin="round" stroke-miterlimit="10" fill="none" fill-rule="evenodd"/><path d="M41.0725 354.598 336.45 354.598" stroke="#FFFFFF" stroke-width="1.33333" stroke-linejoin="round" stroke-miterlimit="10" fill="none" fill-rule="evenodd"/><path d="M41.7392 97.5373 41.7392 396.865" stroke="#FFFFFF" stroke-width="1.33333" stroke-linejoin="round" stroke-miterlimit="10" fill="none" fill-rule="evenodd"/><path d="M335.783 97.5373 335.783 396.865" stroke="#FFFFFF" stroke-width="1.33333" stroke-linejoin="round" stroke-miterlimit="10" fill="none" fill-rule="evenodd"/><path d="M41.0725 98.204 336.45 98.204" stroke="#FFFFFF" stroke-width="1.33333" stroke-linejoin="round" stroke-miterlimit="10" fill="none" fill-rule="evenodd"/><path d="M41.0725 396.198 336.45 396.198" stroke="#FFFFFF" stroke-width="1.33333" stroke-linejoin="round" stroke-miterlimit="10" fill="none" fill-rule="evenodd"/><text font-family="Times New Roman,Times New Roman_MSFontService,sans-serif" font-weight="700" font-size="32" transform="translate(277.169 134)">A4</text><text font-family="Times New Roman,Times New Roman_MSFontService,sans-serif" font-weight="700" font-size="32" transform="translate(199.107 134)">A3</text><g><text font-family="Times New Roman,Times New Roman_MSFontService,sans-serif" font-weight="700" font-size="32" transform="translate(124.007 134)">A2</text></g><g><text font-family="Times New Roman,Times New Roman_MSFontService,sans-serif" font-weight="700" font-size="32" transform="translate(55.0467 134)">A1</text></g><text font-family="Times New Roman,Times New Roman_MSFontService,sans-serif" font-weight="400" font-size="26.6667" transform="translate(287.835 177)">B</text><text font-family="Times New Roman,Times New Roman_MSFontService,sans-serif" font-weight="400" font-size="26.6667" transform="translate(205.357 177)">30</text><text font-family="Times New Roman,Times New Roman_MSFontService,sans-serif" font-weight="400" font-size="26.6667" transform="translate(130.257 177)">10</text><text font-family="Times New Roman,Times New Roman_MSFontService,sans-serif" font-weight="400" font-size="26.6667" transform="translate(61.2967 177)">20</text><text font-family="Times New Roman,Times New Roman_MSFontService,sans-serif" font-weight="400" font-size="26.6667" transform="translate(287.835 219)">B</text><text font-family="Times New Roman,Times New Roman_MSFontService,sans-serif" font-weight="400" font-size="26.6667" transform="translate(205.357 219)">43</text><text font-family="Times New Roman,Times New Roman_MSFontService,sans-serif" font-weight="400" font-size="26.6667" transform="translate(130.257 219)">25</text><text font-family="Times New Roman,Times New Roman_MSFontService,sans-serif" font-weight="400" font-size="26.6667" transform="translate(61.2967 219)">40</text><text font-family="Times New Roman,Times New Roman_MSFontService,sans-serif" font-weight="400" font-size="26.6667" transform="translate(287.835 261)">B</text><text font-family="Times New Roman,Times New Roman_MSFontService,sans-serif" font-weight="400" font-size="26.6667" transform="translate(205.357 261)">33</text><text font-family="Times New Roman,Times New Roman_MSFontService,sans-serif" font-weight="400" font-size="26.6667" transform="translate(130.75 261)">11</text><text font-family="Times New Roman,Times New Roman_MSFontService,sans-serif" font-weight="400" font-size="26.6667" transform="translate(61.2967 261)">30</text><text font-family="Times New Roman,Times New Roman_MSFontService,sans-serif" font-weight="400" font-size="26.6667" transform="translate(287.835 302)">B</text><text font-family="Times New Roman,Times New Roman_MSFontService,sans-serif" font-weight="400" font-size="26.6667" transform="translate(205.357 302)">94</text><text font-family="Times New Roman,Times New Roman_MSFontService,sans-serif" font-weight="400" font-size="26.6667" transform="translate(130.257 302)">20</text><text font-family="Times New Roman,Times New Roman_MSFontService,sans-serif" font-weight="400" font-size="26.6667" transform="translate(61.2967 302)">30</text><text font-family="Times New Roman,Times New Roman_MSFontService,sans-serif" font-weight="400" font-size="26.6667" transform="translate(287.835 344)">C</text><text font-family="Times New Roman,Times New Roman_MSFontService,sans-serif" font-weight="400" font-size="26.6667" transform="translate(198.69 344)">100</text><text font-family="Times New Roman,Times New Roman_MSFontService,sans-serif" font-weight="400" font-size="26.6667" transform="translate(130.257 344)">54</text><text font-family="Times New Roman,Times New Roman_MSFontService,sans-serif" font-weight="400" font-size="26.6667" transform="translate(61.2967 344)">10</text><text font-family="Times New Roman,Times New Roman_MSFontService,sans-serif" font-weight="400" font-size="26.6667" transform="translate(287.085 385)">A</text><text font-family="Times New Roman,Times New Roman_MSFontService,sans-serif" font-weight="400" font-size="26.6667" transform="translate(212.023 385)">1</text><text font-family="Times New Roman,Times New Roman_MSFontService,sans-serif" font-weight="400" font-size="26.6667" transform="translate(136.923 385)">0</text><text font-family="Times New Roman,Times New Roman_MSFontService,sans-serif" font-weight="400" font-size="26.6667" transform="translate(61.2967 385)">70</text><text font-family="Times New Roman,Times New Roman_MSFontService,sans-serif" font-weight="700" font-size="32" transform="translate(87.0147 83)">T</text><text font-family="Times New Roman,Times New Roman_MSFontService,sans-serif" font-weight="700" font-size="32" transform="translate(105.408 83)">abular</text><text font-family="Times New Roman,Times New Roman_MSFontService,sans-serif" font-weight="700" font-size="32" transform="translate(203.495 83)">D</text><text font-family="Times New Roman,Times New Roman_MSFontService,sans-serif" font-weight="700" font-size="32" transform="translate(226.661 83)">ata</text><path d="M417.5 82.5008C417.5 67.0364 430.036 54.5001 445.501 54.5001L1109.5 54.5001C1124.96 54.5001 1137.5 67.0364 1137.5 82.5008L1137.5 194.499C1137.5 209.964 1124.96 222.5 1109.5 222.5L445.501 222.5C430.036 222.5 417.5 209.964 417.5 194.499Z" stroke="#FFF2CC" stroke-width="1.33333" stroke-miterlimit="8" fill="#FFF2CC" fill-rule="evenodd"/><path d="M461.5 112C461.5 101.23 470.454 92.5001 481.5 92.5001 492.546 92.5001 501.5 101.23 501.5 112 501.5 122.77 492.546 131.5 481.5 131.5 470.454 131.5 461.5 122.77 461.5 112Z" stroke="#AFABAB" stroke-width="1.33333" stroke-miterlimit="8" fill="#AFABAB" fill-rule="evenodd"/><path d="M426.5 173.5C426.5 162.454 435.678 153.5 447 153.5 458.322 153.5 467.5 162.454 467.5 173.5 467.5 184.546 458.322 193.5 447 193.5 435.678 193.5 426.5 184.546 426.5 173.5Z" stroke="#AFABAB" stroke-width="1.33333" stroke-miterlimit="8" fill="#AFABAB" fill-rule="evenodd"/><path d="M501.5 173.5C501.5 162.454 510.454 153.5 521.5 153.5 532.546 153.5 541.5 162.454 541.5 173.5 541.5 184.546 532.546 193.5 521.5 193.5 510.454 193.5 501.5 184.546 501.5 173.5Z" stroke="#AFABAB" stroke-width="1.33333" stroke-miterlimit="8" fill="#AFABAB" fill-rule="evenodd"/><path d="M496.699 124.598 513.866 147.406 511.469 149.21 494.302 126.402ZM515.361 144.403 517.178 154.3 508.17 149.816Z"/><path d="M1.21389-0.881178 17.051 20.9357 14.6233 22.698-1.21389 0.881178ZM18.5976 17.9594 20.243 27.8863 11.3143 23.2465Z" transform="matrix(-1 0 0 1 466.743 125.5)"/><text font-family="Times New Roman,Times New Roman_MSFontService,sans-serif" font-weight="700" font-size="26.6667" transform="translate(469.766 179)">…</text><g><g><g><path d="M19.7348 13.9679C19.7348 15.6904 18.0496 16.5517 16.1773 16.5517 14.567 16.5517 13.2938 15.6904 12.3202 13.9679 11.5338 15.6904 10.2231 16.5517 8.31332 16.5517 6.47839 16.5517 4.9805 15.6904 3.78218 14.0053 2.77111 12.5449 2.24684 11.4589 2.24684 10.7474 2.24684 10.4104 2.43408 10.2231 2.80855 10.2231 3.14558 10.2231 3.37026 10.4104 3.44516 10.7474 4.15666 12.9193 5.72945 15.4658 8.23842 15.4658 9.47418 15.4658 10.0733 14.6794 10.0733 13.144 10.0733 12.3576 9.39929 9.43674 8.08863 4.41879 7.45203 1.90982 6.32861 0.674053 4.71837 0.674053 4.19411 0.674053 3.70729 0.786395 3.29537 0.973632 4.269 1.34811 4.75582 2.02216 4.75582 2.99579 4.75582 3.96942 4.269 4.45624 3.25792 4.45624 2.02216 4.45624 1.08597 3.40771 1.08597 2.17195 1.08597 0.449368 2.846-0.411921 4.68092-0.411921 6.25371-0.411921 7.52692 0.449368 8.538 2.17195 9.2495 0.449368 10.5976-0.411921 12.5449-0.411921 14.3423-0.411921 15.8402 0.449368 17.0386 2.1345 18.0496 3.59495 18.5739 4.68092 18.5739 5.39242 18.5739 5.72945 18.3867 5.91668 18.0122 5.91668 17.6752 5.91668 17.4879 5.72945 17.3756 5.39242 16.739 3.25792 15.0538 0.674053 12.6198 0.674053 11.384 0.674053 10.7474 1.423 10.7474 2.95834 10.7474 3.44516 10.9346 4.49368 11.3466 6.17882L12.6198 11.2342C13.3313 14.0428 14.4921 15.4658 16.1398 15.4658 16.6641 15.4658 17.1509 15.3534 17.5628 15.1662 16.5517 14.8292 16.0649 14.1551 16.0649 13.144 16.0649 12.1704 16.5892 11.6836 17.6003 11.6836 18.7986 11.6836 19.7348 12.7696 19.7348 13.9679Z" transform="matrix(1.05069 0 0 -1 454 206.011)"/><path d="M10.4577 8.26029C11.9668 8.26029 13.3171 8.68389 14.5085 9.5311 15.8587 10.4842 16.5206 11.6756 16.5206 13.1053 16.5206 14.6144 15.8322 15.8587 14.4555 16.8118 13.2376 17.659 11.8345 18.0826 10.2459 18.0826L0.926635 18.0826 0.926635 17.0501 1.66794 17.0501C2.59458 17.0501 3.15056 16.9707 3.33589 16.8383 3.52121 16.7059 3.62711 16.4147 3.62711 15.9381L3.62711 2.1445C3.62711 1.66794 3.52121 1.35024 3.33589 1.21786 3.15056 1.08549 2.59458 1.03254 1.66794 1.03254L0.926635 1.03254 0.926635 0C1.61499 0.0529506 2.93876 0.0794259 4.87145 0.0794259 6.83062 0.0794259 8.15439 0.0529506 8.84275 0L8.84275 1.03254 8.10144 1.03254C7.1748 1.03254 6.61882 1.08549 6.4335 1.21786 6.24817 1.35024 6.14227 1.66794 6.14227 2.1445L6.14227 8.26029M7.25423 17.0501 9.58405 17.0501C10.3518 17.0501 11.0137 16.9442 11.5697 16.7589 13.0788 16.2029 13.6083 15.0909 13.6083 13.1053 13.6083 12.364 13.5289 11.7286 13.3435 11.199 12.8935 9.87528 11.4638 9.16045 9.58405 9.16045L6.06284 9.16045 6.06284 16.1235C6.06284 17.0766 6.22169 17.0501 7.25423 17.0501Z" transform="matrix(1.05069 0 0 -1 477.804 211.729)"/><path d="M15.4351 0.0794259 18.9828 0 18.9828 1.03254 18.4003 1.03254C17.7384 1.03254 17.2884 1.05901 17.103 1.11196 16.7059 1.24434 16.4412 1.53557 16.2823 1.98565L10.6166 18.3738C10.5107 18.718 10.3254 18.9563 9.92823 18.9563 9.58405 18.9563 9.34578 18.771 9.2134 18.3738L3.78597 2.70048C3.41531 1.61499 2.43573 1.03254 0.847209 1.00606L0.847209 0 3.62711 0.0794259 6.72472 0 6.72472 1.03254C5.42743 1.03254 4.76555 1.42967 4.76555 2.2504 4.76555 2.43573 4.79203 2.54163 4.8185 2.59458L6.00989 5.95694 12.311 5.95694 13.6612 2.0386C13.7142 1.87975 13.7407 1.77384 13.7407 1.69442 13.7407 1.24434 13.0258 1.03254 11.5697 1.03254L11.5697 0C12.6817 0.0794259 13.979 0.105901 15.4351 0.0794259M9.13397 15.0644 11.9404 6.98948 6.35407 6.98948Z" transform="matrix(1.05069 0 0 -1 496.748 211.729)"/><path d="M7.43106 11.6239C7.43106 12.1293 7.169 12.3726 6.66362 12.3726 6.13951 12.3726 5.61541 11.8485 5.61541 11.3244 5.61541 10.819 5.85874 10.5757 6.36413 10.5757 6.88823 10.5757 7.43106 11.0998 7.43106 11.6239M4.99771 8.3108C4.00566 8.3108 3.16335 7.56208 2.75155 6.90695 2.24616 6.10208 2.00283 5.59669 2.00283 5.37207 2.00283 5.20361 2.09642 5.12874 2.2836 5.12874 2.37719 5.12874 2.43334 5.14746 2.4895 5.16618 2.58309 5.31592 2.63924 5.44695 2.6954 5.54054 3.29437 7.01926 4.04309 7.74926 4.94156 7.74926 5.27848 7.74926 5.44695 7.48721 5.44695 6.98182 5.44695 6.70105 5.40951 6.38285 5.31592 6.04592L3.59386-0.861029C3.33181-1.94667 2.58309-3.27566 1.40385-3.27566 1.23539-3.27566 1.06693-3.25694 0.898465-3.20078 1.36642-3.0136 1.59103-2.67668 1.59103-2.20873 1.59103-1.72206 1.32898-1.47872 0.823593-1.47872 0.224616-1.47872-0.243334-2.02155-0.243334-2.62052-0.243334-3.44412 0.561541-3.8372 1.44129-3.8372 2.24616-3.8372 2.99488-3.55643 3.68745-2.99488 4.34258-2.45206 4.75438-1.75949 4.96028-0.954619L6.66362 5.82131C6.71977 6.06464 6.75721 6.30798 6.75721 6.53259 6.75721 7.56208 6.0272 8.3108 4.99771 8.3108Z" transform="matrix(1.05069 0 0 -1 518.529 215.701)"/></g></g></g><rect x="569" y="106" width="128" height="69" fill="#FFD966"/><text font-family="Times New Roman,Times New Roman_MSFontService,sans-serif" font-weight="700" font-size="21.3333" transform="translate(580.71 138)">Block</text><text font-family="Times New Roman,Times New Roman_MSFontService,sans-serif" font-weight="700" font-size="21.3333" transform="translate(632.876 138)">-</text><text font-family="Times New Roman,Times New Roman_MSFontService,sans-serif" font-weight="700" font-size="21.3333" transform="translate(640.043 138)">Wise</text><text font-family="Times New Roman,Times New Roman_MSFontService,sans-serif" font-weight="700" font-size="21.3333" transform="translate(607.263 163)">Mask</text><path d="M538 133.25 551.5 133.25 551.5 126 565 140.5 551.5 155 551.5 147.75 538 147.75Z" fill="#A5A5A5" fill-rule="evenodd"/><path d="M703 133.25 716.5 133.25 716.5 126 730 140.5 716.5 155 716.5 147.75 703 147.75Z" fill="#A5A5A5" fill-rule="evenodd"/><text font-family="Times New Roman,Times New Roman_MSFontService,sans-serif" font-weight="700" font-size="21.3333" transform="translate(828.491 86)">Continuous</text><text font-family="Times New Roman,Times New Roman_MSFontService,sans-serif" font-weight="700" font-size="21.3333" transform="translate(841.685 111)">Features</text><text font-family="Times New Roman,Times New Roman_MSFontService,sans-serif" font-weight="700" font-size="21.3333" transform="translate(830.997 174)">Categorical</text><text font-family="Times New Roman,Times New Roman_MSFontService,sans-serif" font-weight="700" font-size="21.3333" transform="translate(844.277 199)">Features</text><g><g><g><path d="M24.3354 17.2241C24.3354 19.3483 22.2574 20.4103 19.9486 20.4103 17.963 20.4103 16.3929 19.3483 15.1923 17.2241 14.2226 19.3483 12.6064 20.4103 10.2514 20.4103 7.98867 20.4103 6.14158 19.3483 4.6639 17.2703 3.41712 15.4694 2.77064 14.1302 2.77064 13.2529 2.77064 12.8373 3.00152 12.6064 3.46329 12.6064 3.87889 12.6064 4.15595 12.8373 4.24831 13.2529 5.12568 15.9312 7.06512 19.0712 10.159 19.0712 11.6828 19.0712 12.4217 18.1015 12.4217 16.2082 12.4217 15.2385 11.5905 11.6367 9.97429 5.44892 9.18927 2.35504 7.80396 0.831191 5.81833 0.831191 5.17185 0.831191 4.57155 0.969722 4.0636 1.20061 5.26421 1.66238 5.86451 2.49357 5.86451 3.69418 5.86451 4.89479 5.26421 5.49509 4.01742 5.49509 2.49357 5.49509 1.33914 4.20213 1.33914 2.67828 1.33914 0.554127 3.50947-0.50795 5.77216-0.50795 7.7116-0.50795 9.28163 0.554127 10.5284 2.67828 11.4058 0.554127 13.0682-0.50795 15.4694-0.50795 17.6859-0.50795 19.533 0.554127 21.0107 2.6321 22.2574 4.43302 22.9039 5.77216 22.9039 6.64953 22.9039 7.06512 22.673 7.29601 22.2113 7.29601 21.7957 7.29601 21.5648 7.06512 21.4262 6.64953 20.6412 4.01742 18.5633 0.831191 15.5617 0.831191 14.0379 0.831191 13.2529 1.75474 13.2529 3.648 13.2529 4.24831 13.4838 5.54127 13.9917 7.61925L15.5617 13.8532C16.4391 17.3165 17.8706 19.0712 19.9024 19.0712 20.5489 19.0712 21.1492 18.9327 21.6571 18.7018 20.4103 18.2862 19.81 17.455 19.81 16.2082 19.81 15.0076 20.4565 14.4073 21.7033 14.4073 23.181 14.4073 24.3354 15.7464 24.3354 17.2241Z" transform="matrix(1 0 0 -1.0625 963.151 108.526)"/><path d="M17.8244 23.7813 18.6094 24.6125 11.5443 32.047 4.47919 24.6125 5.26421 23.7813 11.5443 28.5375Z" transform="matrix(1 0 0 -1.0625 966.799 106.956)"/><path d="M12.961 20.274C12.961 21.1555 12.5039 21.5799 11.6224 21.5799 10.7083 21.5799 9.7942 20.6658 9.7942 19.7516 9.7942 18.8702 10.2186 18.4457 11.1001 18.4457 12.0142 18.4457 12.961 19.3599 12.961 20.274M8.71684 14.4954C6.98653 14.4954 5.5174 13.1895 4.79916 12.0469 3.91768 10.643 3.49326 9.76155 3.49326 9.36978 3.49326 9.07596 3.6565 8.94537 3.98297 8.94537 4.14621 8.94537 4.24415 8.97801 4.34209 9.01066 4.50533 9.27184 4.60327 9.50037 4.70121 9.66361 5.74593 12.2427 7.05182 13.516 8.61889 13.516 9.20654 13.516 9.50037 13.0589 9.50037 12.1775 9.50037 11.6877 9.43508 11.1327 9.27184 10.5451L6.26829-1.50178C5.81122-3.39532 4.50533-5.71328 2.44855-5.71328 2.15472-5.71328 1.8609-5.68063 1.56707-5.58269 2.38325-5.25622 2.77502-4.66857 2.77502-3.85238 2.77502-3.00355 2.31796-2.57914 1.43648-2.57914 0.391768-2.57914-0.424415-3.52591-0.424415-4.57063-0.424415-6.00711 0.97942-6.6927 2.51384-6.6927 3.91768-6.6927 5.22357-6.20299 6.43152-5.22357 7.57418-4.2768 8.29242-3.06885 8.65154-1.66501L11.6224 10.1533C11.7204 10.5777 11.7857 11.0021 11.7857 11.3939 11.7857 13.1895 10.5124 14.4954 8.71684 14.4954Z" transform="matrix(1 0 0 -1.0625 991.089 115.886)"/></g></g></g><g><g><g><path d="M22.1658 0C22.6623 0 22.9251 0.116816 22.9251 0.379651L12.9958 20.3259C12.7913 20.7056 12.5285 20.91 12.1488 20.91 11.7692 20.91 11.5064 20.7056 11.3019 20.3259L1.5186 0.730098C1.43099 0.525671 1.37259 0.408855 1.37259 0.350447 1.37259 0.116816 1.63542 0 2.13189 0M11.2143 17.6392 18.8073 2.42393 3.62129 2.42393Z" transform="matrix(1.02098 0 0 -1 958 188.198)"/><path d="M16.6003 14.0401C16.1667 14.0401 14.7627 14.102 14.3291 14.102 14.0194 14.102 13.8543 13.9368 13.8543 13.6065 13.8543 13.4413 13.9988 13.3381 14.2879 13.2761 14.5769 13.2142 14.7421 13.111 14.7421 12.9664 14.7421 12.7393 14.515 12.4296 14.0401 12.0786L6.23545 6.11157 7.82528 12.4296C7.92852 12.8632 8.11434 13.1316 8.38276 13.2348 8.50664 13.2761 8.85764 13.2968 9.45641 13.2968 9.99324 13.2968 10.241 13.2968 10.241 13.7923 10.241 13.9988 10.1171 14.102 9.86935 14.102L7.24716 14.0401 4.60432 14.102C4.27397 14.1227 4.10879 13.9575 4.10879 13.6271 4.10879 13.4 4.33591 13.2968 4.79015 13.2968 5.20309 13.2968 6.04962 13.3587 6.04962 13.0284 6.04962 12.9871 6.02898 12.8632 5.96704 12.6567L3.22096 1.69307C3.11772 1.23883 2.91125 0.970418 2.60155 0.867182 2.45701 0.825887 2.08537 0.80524 1.4453 0.80524 0.991065 0.80524 0.784593 0.763946 0.784593 0.330355 0.784593 0.103236 0.908476 0 1.17689 0L3.77843 0.0619415 5.07921 0.0412944C5.30633 0.0412944 6.17351 0 6.40063 0 6.73098 0 6.89616 0.165177 6.89616 0.495532 6.89616 0.702004 6.68969 0.80524 6.2561 0.80524 5.40956 0.80524 4.99662 0.887829 4.99662 1.07365 4.99662 1.17689 5.05856 1.4866 5.18244 1.96148L5.98768 5.14115 8.94023 7.41234 11.2734 2.02342C11.4179 1.67242 11.5005 1.4453 11.5005 1.34207 11.5005 0.991065 11.1701 0.80524 10.5301 0.80524 10.1584 0.80524 9.99324 0.722651 9.99324 0.309708 9.99324 0.103236 10.1171 0 10.3649 0 10.8191 0 12.3883 0.0619415 12.8425 0.0619415 13.2348 0.0619415 14.4737 0 14.866 0 15.155 0 15.2996 0.165177 15.2996 0.495532 15.2996 0.681357 15.1344 0.784593 14.8247 0.80524 13.9781 0.80524 13.7717 1.03236 13.4826 1.67242L10.5714 8.34146C10.5507 8.4447 10.5094 8.52729 10.4888 8.58923L14.6182 11.7689C15.6299 12.5535 16.4971 13.0284 17.1991 13.1936 17.6946 13.2761 18.3553 13.2555 18.3553 13.7923 18.3553 13.9988 18.2521 14.102 18.0456 14.102 17.7566 14.102 16.8894 14.0401 16.6003 14.0401Z" transform="matrix(1.02098 0 0 -1 983.821 176.137)"/><path d="M14.4117 5.57474 1.65177 5.57474C1.32142 5.57474 1.15624 5.43021 1.15624 5.1618 1.15624 4.89338 1.32142 4.74885 1.65177 4.74885L14.4117 4.74885C14.7421 4.74885 14.9073 4.89338 14.9073 5.1618 14.9073 5.40956 14.6595 5.57474 14.4117 5.57474Z" transform="matrix(1.02098 0 0 -1 1002.56 176.137)"/><path d="M5.55409 13.751C4.70756 12.8838 3.46873 12.4503 1.8376 12.4503L1.8376 11.645C2.91125 11.645 3.79908 11.8102 4.48044 12.1405L4.48044 1.69307C4.48044 1.32142 4.39785 1.07365 4.21203 0.970418 4.0262 0.867182 3.51002 0.80524 2.68413 0.80524L1.96148 0.80524 1.96148 0C2.47766 0.0412944 3.59261 0.0619415 5.30633 0.0619415 7.02004 0.0619415 8.13499 0.0412944 8.65117 0L8.65117 0.80524 7.92852 0.80524C7.08198 0.80524 6.5658 0.867182 6.40063 0.970418 6.23545 1.07365 6.13221 1.32142 6.13221 1.69307L6.13221 13.1316C6.13221 13.6271 6.09092 13.751 5.55409 13.751Z" transform="matrix(1.02098 0 0 -1 1018.96 176.137)"/><path d="M8.19693 12.8219C8.19693 13.3794 7.90787 13.6478 7.3504 13.6478 6.77228 13.6478 6.19415 13.0697 6.19415 12.4915 6.19415 11.9341 6.46257 11.6657 7.02004 11.6657 7.59816 11.6657 8.19693 12.2438 8.19693 12.8219M5.5128 9.16735C4.4185 9.16735 3.48937 8.34146 3.03514 7.61881 2.47766 6.73098 2.20925 6.17351 2.20925 5.92574 2.20925 5.73992 2.31248 5.65733 2.51896 5.65733 2.62219 5.65733 2.68413 5.67798 2.74608 5.69862 2.84931 5.8638 2.91125 6.00833 2.97319 6.11157 3.6339 7.74269 4.45979 8.54793 5.45086 8.54793 5.82251 8.54793 6.00833 8.25887 6.00833 7.7014 6.00833 7.39169 5.96704 7.04069 5.8638 6.66904L3.96426-0.94977C3.6752-2.14731 2.84931-3.61326 1.54854-3.61326 1.36271-3.61326 1.17689-3.59261 0.991065-3.53067 1.50724-3.3242 1.75501-2.95255 1.75501-2.43637 1.75501-1.89954 1.46595-1.63113 0.908476-1.63113 0.247766-1.63113-0.268413-2.2299-0.268413-2.89061-0.268413-3.79908 0.619416-4.23267 1.58983-4.23267 2.47766-4.23267 3.30355-3.92296 4.06749-3.30355 4.79015-2.70478 5.24438-1.94084 5.4715-1.05301L7.3504 6.42127C7.41234 6.68969 7.45363 6.9581 7.45363 7.20587 7.45363 8.34146 6.64839 9.16735 5.5128 9.16735Z" transform="matrix(1.02098 0 0 -1 983.821 196.758)"/></g></g></g><path d="M0-1.5 21.2963-1.5 21.2963 48.2804 19.7963 46.7804 143.801 46.7804 143.801 49.7804 18.2963 49.7804 18.2963 0 19.7963 1.5 0 1.5ZM142.301 43.7804 151.301 48.2804 142.301 52.7804Z" transform="matrix(1 0 0 -1 806.5 141.78)"/><path d="M806.5 140 827.796 140 827.796 181.091 826.296 179.591 950.301 179.591 950.301 182.591 824.796 182.591 824.796 141.5 826.296 143 806.5 143ZM948.801 176.591 957.801 181.091 948.801 185.591Z"/><text font-family="Times New Roman,Times New Roman_MSFontService,sans-serif" font-weight="700" font-size="21.3333" transform="translate(1007.55 93)">Continuous</text><text font-family="Times New Roman,Times New Roman_MSFontService,sans-serif" font-weight="700" font-size="21.3333" transform="translate(1030.45 118)">Values</text><text font-family="Times New Roman,Times New Roman_MSFontService,sans-serif" font-weight="700" font-size="21.3333" transform="translate(1031.42 181)">Probability</text><text font-family="Times New Roman,Times New Roman_MSFontService,sans-serif" font-weight="700" font-size="21.3333" transform="translate(1048.87 206)">Vectors</text><path d="M417.5 278.167C417.5 262.887 429.887 250.5 445.167 250.5L1109.83 250.5C1125.11 250.5 1137.5 262.887 1137.5 278.167L1137.5 388.833C1137.5 404.113 1125.11 416.5 1109.83 416.5L445.167 416.5C429.887 416.5 417.5 404.113 417.5 388.833Z" stroke="#FFF2CC" stroke-width="1.33333" stroke-miterlimit="8" fill="#FFF2CC" fill-rule="evenodd"/><path d="M461.5 305.5C461.5 294.454 470.454 285.5 481.5 285.5 492.546 285.5 501.5 294.454 501.5 305.5 501.5 316.546 492.546 325.5 481.5 325.5 470.454 325.5 461.5 316.546 461.5 305.5Z" stroke="#AFABAB" stroke-width="1.33333" stroke-miterlimit="8" fill="#AFABAB" fill-rule="evenodd"/><path d="M426.5 365.5C426.5 354.454 435.678 345.5 447 345.5 458.322 345.5 467.5 354.454 467.5 365.5 467.5 376.546 458.322 385.5 447 385.5 435.678 385.5 426.5 376.546 426.5 365.5Z" stroke="#AFABAB" stroke-width="1.33333" stroke-miterlimit="8" fill="#AFABAB" fill-rule="evenodd"/><path d="M501.5 365.5C501.5 354.454 510.454 345.5 521.5 345.5 532.546 345.5 541.5 354.454 541.5 365.5 541.5 376.546 532.546 385.5 521.5 385.5 510.454 385.5 501.5 376.546 501.5 365.5Z" stroke="#AFABAB" stroke-width="1.33333" stroke-miterlimit="8" fill="#AFABAB" fill-rule="evenodd"/><path d="M496.689 318.585 513.792 340.802 511.414 342.632 494.311 320.415ZM515.254 337.783 517.178 347.66 508.122 343.273Z"/><path d="M1.19212-0.910409 16.8831 19.636 14.4989 21.4568-1.19212 0.910409ZM18.357 16.623 20.243 26.507 11.2042 22.0855Z" transform="matrix(-1 0 0 1 466.743 319.5)"/><text font-family="Times New Roman,Times New Roman_MSFontService,sans-serif" font-weight="700" font-size="26.6667" transform="translate(469.766 371)">…</text><g><g><g><path d="M20.3714 14.4184C20.3714 16.1966 18.6319 17.0857 16.6991 17.0857 15.0369 17.0857 13.7226 16.1966 12.7176 14.4184 11.9058 16.1966 10.5529 17.0857 8.58149 17.0857 6.68737 17.0857 5.14116 16.1966 3.90419 14.4571 2.8605 12.9495 2.31932 11.8285 2.31932 11.0941 2.31932 10.7462 2.5126 10.5529 2.89915 10.5529 3.24705 10.5529 3.47898 10.7462 3.55629 11.0941 4.29074 13.3361 5.91427 15.9647 8.50418 15.9647 9.7798 15.9647 10.3983 15.1529 10.3983 13.568 10.3983 12.7563 9.70249 9.74115 8.34955 4.56133 7.69241 1.97142 6.53275 0.695796 4.87057 0.695796 4.3294 0.695796 3.82688 0.811762 3.40167 1.00504 4.40671 1.39159 4.90923 2.08739 4.90923 3.09243 4.90923 4.09747 4.40671 4.59999 3.36301 4.59999 2.08739 4.59999 1.121 3.51764 1.121 2.24201 1.121 0.463864 2.93781-0.425209 4.83192-0.425209 6.45544-0.425209 7.76972 0.463864 8.81342 2.24201 9.54787 0.463864 10.9395-0.425209 12.9495-0.425209 14.805-0.425209 16.3512 0.463864 17.5882 2.20335 18.6319 3.71091 19.173 4.83192 19.173 5.56637 19.173 5.91427 18.9798 6.10754 18.5932 6.10754 18.2453 6.10754 18.052 5.91427 17.9361 5.56637 17.2789 3.36301 15.5394 0.695796 13.0269 0.695796 11.7512 0.695796 11.0941 1.4689 11.0941 3.05377 11.0941 3.55629 11.2874 4.63864 11.7126 6.37813L13.0269 11.5966C13.7613 14.4958 14.9596 15.9647 16.6605 15.9647 17.2016 15.9647 17.7041 15.8487 18.1294 15.6554 17.0857 15.3075 16.5831 14.6117 16.5831 13.568 16.5831 12.563 17.1243 12.0605 18.168 12.0605 19.405 12.0605 20.3714 13.1815 20.3714 14.4184Z" transform="matrix(1.01786 0 0 -1 456 402.56)"/><path d="M10.7951 8.52675C12.3529 8.52675 13.7467 8.96402 14.9765 9.83856 16.3703 10.8224 17.0535 12.0522 17.0535 13.528 17.0535 15.0858 16.3429 16.3703 14.9218 17.3541 13.6647 18.2287 12.2162 18.6659 10.5765 18.6659L0.956527 18.6659 0.956527 17.6001 1.72175 17.6001C2.67827 17.6001 3.25219 17.5181 3.4435 17.3815 3.6348 17.2448 3.74412 16.9442 3.74412 16.4523L3.74412 2.21368C3.74412 1.72175 3.6348 1.3938 3.4435 1.25715 3.25219 1.1205 2.67827 1.06584 1.72175 1.06584L0.956527 1.06584 0.956527 0C1.66709 0.0546587 3.03356 0.081988 5.0286 0.081988 7.05097 0.081988 8.41743 0.0546587 9.128 0L9.128 1.06584 8.36277 1.06584C7.40625 1.06584 6.83233 1.1205 6.64103 1.25715 6.44972 1.3938 6.3404 1.72175 6.3404 2.21368L6.3404 8.52675M7.48824 17.6001 9.89322 17.6001C10.6858 17.6001 11.369 17.4908 11.9429 17.2995 13.5007 16.7255 14.0473 15.5777 14.0473 13.528 14.0473 12.7628 13.9653 12.1069 13.774 11.5603 13.3094 10.1938 11.8336 9.45595 9.89322 9.45595L6.25842 9.45595 6.25842 16.6436C6.25842 17.6274 6.42239 17.6001 7.48824 17.6001Z" transform="matrix(1.01786 0 0 -1 479.804 408.462)"/><path d="M15.933 0.081988 19.5951 0 19.5951 1.06584 18.9939 1.06584C18.3106 1.06584 17.8461 1.09317 17.6547 1.14783 17.2448 1.28448 16.9715 1.5851 16.8075 2.0497L10.9591 18.9666C10.8497 19.3218 10.6584 19.5678 10.2485 19.5678 9.89322 19.5678 9.64725 19.3765 9.51061 18.9666L3.90809 2.78759C3.52548 1.66709 2.5143 1.06584 0.874539 1.03851L0.874539 0 3.74412 0.081988 6.94165 0 6.94165 1.06584C5.60251 1.06584 4.91928 1.47578 4.91928 2.32299 4.91928 2.5143 4.94661 2.62362 4.97394 2.67827L6.20376 6.1491 12.7081 6.1491 14.1019 2.10436C14.1566 1.94038 14.1839 1.83107 14.1839 1.74908 14.1839 1.28448 13.446 1.06584 11.9429 1.06584L11.9429 0C13.0907 0.081988 14.4299 0.109317 15.933 0.081988M9.42862 15.5504 12.3255 7.21494 6.55904 7.21494Z" transform="matrix(1.01786 0 0 -1 498.748 408.462)"/><path d="M7.67077 11.9989C7.67077 12.5205 7.40026 12.7717 6.87857 12.7717 6.33756 12.7717 5.79655 12.2307 5.79655 11.6897 5.79655 11.168 6.04773 10.9168 6.56942 10.9168 7.11044 10.9168 7.67077 11.4578 7.67077 11.9989M5.15893 8.5789C4.13487 8.5789 3.26539 7.80602 2.84031 7.12976 2.31862 6.29892 2.06744 5.77723 2.06744 5.54537 2.06744 5.37147 2.16405 5.29418 2.35726 5.29418 2.45387 5.29418 2.51184 5.31351 2.5698 5.33283 2.66641 5.4874 2.72438 5.62265 2.78234 5.71926 3.40064 7.24569 4.17352 7.99924 5.10097 7.99924 5.44876 7.99924 5.62265 7.72873 5.62265 7.20705 5.62265 6.91722 5.58401 6.58875 5.4874 6.24095L3.70979-0.888804C3.43929-2.00947 2.66641-3.38132 1.44914-3.38132 1.27524-3.38132 1.10134-3.362 0.927448-3.30403 1.41049-3.11082 1.64236-2.76302 1.64236-2.27998 1.64236-1.77761 1.37185-1.52643 0.850161-1.52643 0.231862-1.52643-0.251184-2.08676-0.251184-2.70506-0.251184-3.55522 0.579655-3.96098 1.48778-3.96098 2.31862-3.96098 3.09149-3.67115 3.8064-3.09149 4.48267-2.53116 4.90775-1.81625 5.12029-0.985414L6.87857 6.00909C6.93654 6.26027 6.97518 6.51146 6.97518 6.74332 6.97518 7.80602 6.22163 8.5789 5.15893 8.5789Z" transform="matrix(1.01786 0 0 -1 520.529 412.562)"/></g></g></g><rect x="569" y="298" width="128" height="69" fill="#FFD966"/><text font-family="Times New Roman,Times New Roman_MSFontService,sans-serif" font-weight="700" font-size="21.3333" transform="translate(580.71 330)">Block</text><text font-family="Times New Roman,Times New Roman_MSFontService,sans-serif" font-weight="700" font-size="21.3333" transform="translate(632.876 330)">-</text><text font-family="Times New Roman,Times New Roman_MSFontService,sans-serif" font-weight="700" font-size="21.3333" transform="translate(640.043 330)">Wise</text><text font-family="Times New Roman,Times New Roman_MSFontService,sans-serif" font-weight="700" font-size="21.3333" transform="translate(607.263 355)">Mask</text><path d="M538 325.25 551.5 325.25 551.5 318 565 332.5 551.5 347 551.5 339.75 538 339.75Z" fill="#A5A5A5" fill-rule="evenodd"/><path d="M703 325.25 716.5 325.25 716.5 318 730 332.5 716.5 347 716.5 339.75 703 339.75Z" fill="#A5A5A5" fill-rule="evenodd"/><text font-family="Times New Roman,Times New Roman_MSFontService,sans-serif" font-weight="700" font-size="21.3333" transform="translate(828.491 279)">Continuous</text><text font-family="Times New Roman,Times New Roman_MSFontService,sans-serif" font-weight="700" font-size="21.3333" transform="translate(841.685 304)">Features</text><text font-family="Times New Roman,Times New Roman_MSFontService,sans-serif" font-weight="700" font-size="21.3333" transform="translate(830.997 366)">Categorical</text><text font-family="Times New Roman,Times New Roman_MSFontService,sans-serif" font-weight="700" font-size="21.3333" transform="translate(844.277 391)">Features</text><g><g><g><path d="M24.3354 17.2241C24.3354 19.3483 22.2574 20.4103 19.9486 20.4103 17.963 20.4103 16.3929 19.3483 15.1923 17.2241 14.2226 19.3483 12.6064 20.4103 10.2514 20.4103 7.98867 20.4103 6.14158 19.3483 4.6639 17.2703 3.41712 15.4694 2.77064 14.1302 2.77064 13.2529 2.77064 12.8373 3.00152 12.6064 3.46329 12.6064 3.87889 12.6064 4.15595 12.8373 4.24831 13.2529 5.12568 15.9312 7.06512 19.0712 10.159 19.0712 11.6828 19.0712 12.4217 18.1015 12.4217 16.2082 12.4217 15.2385 11.5905 11.6367 9.97429 5.44892 9.18927 2.35504 7.80396 0.831191 5.81833 0.831191 5.17185 0.831191 4.57155 0.969722 4.0636 1.20061 5.26421 1.66238 5.86451 2.49357 5.86451 3.69418 5.86451 4.89479 5.26421 5.49509 4.01742 5.49509 2.49357 5.49509 1.33914 4.20213 1.33914 2.67828 1.33914 0.554127 3.50947-0.50795 5.77216-0.50795 7.7116-0.50795 9.28163 0.554127 10.5284 2.67828 11.4058 0.554127 13.0682-0.50795 15.4694-0.50795 17.6859-0.50795 19.533 0.554127 21.0107 2.6321 22.2574 4.43302 22.9039 5.77216 22.9039 6.64953 22.9039 7.06512 22.673 7.29601 22.2113 7.29601 21.7957 7.29601 21.5648 7.06512 21.4262 6.64953 20.6412 4.01742 18.5633 0.831191 15.5617 0.831191 14.0379 0.831191 13.2529 1.75474 13.2529 3.648 13.2529 4.24831 13.4838 5.54127 13.9917 7.61925L15.5617 13.8532C16.4391 17.3165 17.8706 19.0712 19.9024 19.0712 20.5489 19.0712 21.1492 18.9327 21.6571 18.7018 20.4103 18.2862 19.81 17.455 19.81 16.2082 19.81 15.0076 20.4565 14.4073 21.7033 14.4073 23.181 14.4073 24.3354 15.7464 24.3354 17.2241Z" transform="matrix(1 0 0 -1.04318 963.151 300.789)"/><path d="M17.8244 23.7813 18.6094 24.6125 11.5443 32.047 4.47919 24.6125 5.26421 23.7813 11.5443 28.5375Z" transform="matrix(1 0 0 -1.04318 966.799 299.248)"/><path d="M12.961 20.274C12.961 21.1555 12.5039 21.5799 11.6224 21.5799 10.7083 21.5799 9.7942 20.6658 9.7942 19.7516 9.7942 18.8702 10.2186 18.4457 11.1001 18.4457 12.0142 18.4457 12.961 19.3599 12.961 20.274M8.71684 14.4954C6.98653 14.4954 5.5174 13.1895 4.79916 12.0469 3.91768 10.643 3.49326 9.76155 3.49326 9.36978 3.49326 9.07596 3.6565 8.94537 3.98297 8.94537 4.14621 8.94537 4.24415 8.97801 4.34209 9.01066 4.50533 9.27184 4.60327 9.50037 4.70121 9.66361 5.74593 12.2427 7.05182 13.516 8.61889 13.516 9.20654 13.516 9.50037 13.0589 9.50037 12.1775 9.50037 11.6877 9.43508 11.1327 9.27184 10.5451L6.26829-1.50178C5.81122-3.39532 4.50533-5.71328 2.44855-5.71328 2.15472-5.71328 1.8609-5.68063 1.56707-5.58269 2.38325-5.25622 2.77502-4.66857 2.77502-3.85238 2.77502-3.00355 2.31796-2.57914 1.43648-2.57914 0.391768-2.57914-0.424415-3.52591-0.424415-4.57063-0.424415-6.00711 0.97942-6.6927 2.51384-6.6927 3.91768-6.6927 5.22357-6.20299 6.43152-5.22357 7.57418-4.2768 8.29242-3.06885 8.65154-1.66501L11.6224 10.1533C11.7204 10.5777 11.7857 11.0021 11.7857 11.3939 11.7857 13.1895 10.5124 14.4954 8.71684 14.4954Z" transform="matrix(1 0 0 -1.04318 991.089 308.015)"/></g></g></g><g><g><g><path d="M22.6308 0C23.1377 0 23.406 0.119266 23.406 0.387616L13.2684 20.7524C13.0597 21.14 12.7913 21.3487 12.4037 21.3487 12.0161 21.3487 11.7477 21.14 11.539 20.7524L1.55046 0.745415C1.46101 0.536699 1.40138 0.417432 1.40138 0.357799 1.40138 0.119266 1.66973 0 2.17661 0M11.4496 18.0092 19.2019 2.47478 3.69726 2.47478Z" transform="matrix(1 0 0 -1.00457 958 380.87)"/><path d="M16.9486 14.3346C16.5059 14.3346 15.0724 14.3979 14.6298 14.3979 14.3136 14.3979 14.1449 14.2292 14.1449 13.8919 14.1449 13.7233 14.2925 13.6179 14.5876 13.5547 14.8827 13.4914 15.0514 13.386 15.0514 13.2385 15.0514 13.0066 14.8195 12.6904 14.3346 12.332L6.36626 6.23978 7.98945 12.6904C8.09485 13.1331 8.28457 13.4071 8.55862 13.5125 8.6851 13.5547 9.04347 13.5757 9.6548 13.5757 10.2029 13.5757 10.4558 13.5757 10.4558 14.0817 10.4558 14.2925 10.3294 14.3979 10.0764 14.3979L7.3992 14.3346 4.70092 14.3979C4.36363 14.419 4.19499 14.2503 4.19499 13.913 4.19499 13.6811 4.42687 13.5757 4.89064 13.5757 5.31225 13.5757 6.17654 13.639 6.17654 13.3017 6.17654 13.2595 6.15546 13.1331 6.09222 12.9222L3.28853 1.72859C3.18313 1.26482 2.97233 0.990776 2.65612 0.885374 2.50856 0.843214 2.12911 0.822133 1.47562 0.822133 1.01186 0.822133 0.801053 0.779973 0.801053 0.337285 0.801053 0.105402 0.927535 0 1.20158 0L3.8577 0.063241 5.18576 0.0421607C5.41765 0.0421607 6.30302 0 6.53491 0 6.87219 0 7.04083 0.168643 7.04083 0.505928 7.04083 0.716732 6.83003 0.822133 6.38734 0.822133 5.52305 0.822133 5.10144 0.906455 5.10144 1.09618 5.10144 1.20158 5.16468 1.51778 5.29117 2.00263L6.1133 5.249 9.12779 7.56784 11.5099 2.06587C11.6574 1.70751 11.7417 1.47562 11.7417 1.37022 11.7417 1.01186 11.4045 0.822133 10.751 0.822133 10.3715 0.822133 10.2029 0.737812 10.2029 0.316205 10.2029 0.105402 10.3294 0 10.5823 0 11.0461 0 12.6482 0.063241 13.112 0.063241 13.5125 0.063241 14.7773 0 15.1778 0 15.473 0 15.6205 0.168643 15.6205 0.505928 15.6205 0.695651 15.4519 0.801053 15.1357 0.822133 14.2714 0.822133 14.0606 1.05402 13.7655 1.70751L10.7931 8.51646C10.7721 8.62186 10.7299 8.70618 10.7088 8.76942L14.9249 12.0158C15.9578 12.8168 16.8432 13.3017 17.5599 13.4703 18.0659 13.5547 18.7404 13.5336 18.7404 14.0817 18.7404 14.2925 18.635 14.3979 18.4242 14.3979 18.1291 14.3979 17.2437 14.3346 16.9486 14.3346Z" transform="matrix(1 0 0 -1.00457 983.821 368.499)"/><path d="M14.7141 5.69169 1.68643 5.69169C1.34914 5.69169 1.1805 5.54413 1.1805 5.27009 1.1805 4.99604 1.34914 4.84848 1.68643 4.84848L14.7141 4.84848C15.0514 4.84848 15.22 4.99604 15.22 5.27009 15.22 5.52305 14.967 5.69169 14.7141 5.69169Z" transform="matrix(1 0 0 -1.00457 1002.56 368.499)"/><path d="M5.67061 14.0395C4.80632 13.1541 3.5415 12.7114 1.87615 12.7114L1.87615 11.8893C2.97233 11.8893 3.87878 12.058 4.57443 12.3952L4.57443 1.72859C4.57443 1.34914 4.49011 1.09618 4.30039 0.990776 4.11067 0.885374 3.58366 0.822133 2.74044 0.822133L2.00263 0.822133 2.00263 0C2.52964 0.0421607 3.66798 0.063241 5.41765 0.063241 7.16732 0.063241 8.30565 0.0421607 8.83266 0L8.83266 0.822133 8.09485 0.822133C7.23056 0.822133 6.70355 0.885374 6.53491 0.990776 6.36626 1.09618 6.26086 1.34914 6.26086 1.72859L6.26086 13.4071C6.26086 13.913 6.2187 14.0395 5.67061 14.0395Z" transform="matrix(1 0 0 -1.00457 1018.96 368.499)"/><path d="M8.3689 13.0909C8.3689 13.6601 8.07377 13.9341 7.5046 13.9341 6.91435 13.9341 6.3241 13.3439 6.3241 12.7536 6.3241 12.1844 6.59815 11.9104 7.16732 11.9104 7.75757 11.9104 8.3689 12.5006 8.3689 13.0909M5.62845 9.35967C4.51119 9.35967 3.56258 8.51646 3.09881 7.77865 2.52964 6.87219 2.2556 6.30302 2.2556 6.05006 2.2556 5.86033 2.361 5.77601 2.5718 5.77601 2.6772 5.77601 2.74044 5.79709 2.80369 5.81817 2.90909 5.98682 2.97233 6.13438 3.03557 6.23978 3.71014 7.90513 4.55335 8.72726 5.56521 8.72726 5.94466 8.72726 6.13438 8.43214 6.13438 7.86297 6.13438 7.54676 6.09222 7.1884 5.98682 6.80895L4.04743-0.969696C3.7523-2.19236 2.90909-3.68906 1.58103-3.68906 1.3913-3.68906 1.20158-3.66798 1.01186-3.60474 1.53886-3.39393 1.79183-3.01449 1.79183-2.48748 1.79183-1.93939 1.4967-1.66535 0.927535-1.66535 0.252964-1.66535-0.274044-2.27668-0.274044-2.95125-0.274044-3.87878 0.63241-4.32147 1.62319-4.32147 2.52964-4.32147 3.37285-4.00526 4.15283-3.37285 4.89064-2.76152 5.35441-1.98155 5.58629-1.0751L7.5046 6.55599C7.56784 6.83003 7.61 7.10407 7.61 7.35704 7.61 8.51646 6.78787 9.35967 5.62845 9.35967Z" transform="matrix(1 0 0 -1.00457 983.821 389.649)"/></g></g></g><path d="M0-1.5 21.2963-1.5 21.2963 48.2804 19.7963 46.7804 143.801 46.7804 143.801 49.7804 18.2963 49.7804 18.2963 0 19.7963 1.5 0 1.5ZM142.301 43.7804 151.301 48.2804 142.301 52.7804Z" transform="matrix(1 0 0 -1 806.5 333.78)"/><path d="M806.5 332 827.796 332 827.796 373.091 826.296 371.591 950.301 371.591 950.301 374.591 824.796 374.591 824.796 333.5 826.296 335 806.5 335ZM948.801 368.591 957.801 373.091 948.801 377.591Z"/><text font-family="Times New Roman,Times New Roman_MSFontService,sans-serif" font-weight="700" font-size="21.3333" transform="translate(1007.55 285)">Continuous</text><text font-family="Times New Roman,Times New Roman_MSFontService,sans-serif" font-weight="700" font-size="21.3333" transform="translate(1030.45 310)">Values</text><text font-family="Times New Roman,Times New Roman_MSFontService,sans-serif" font-weight="700" font-size="21.3333" transform="translate(1031.42 373)">Probability</text><text font-family="Times New Roman,Times New Roman_MSFontService,sans-serif" font-weight="700" font-size="21.3333" transform="translate(1048.87 398)">Vectors</text><text font-family="Times New Roman,Times New Roman_MSFontService,sans-serif" font-weight="700" font-size="26.6667" transform="matrix(6.12323e-17 1 -1 6.12323e-17 777.416 223)">…</text><rect x="23.5001" y="-3.50005" width="809" height="55.0001" stroke="#FFFFFF" stroke-linejoin="round" stroke-miterlimit="10" fill="#FFFFFF"/><text font-family="Times New Roman,Times New Roman_MSFontService,sans-serif" font-weight="700" font-size="37.3333" transform="translate(32.4134 37)">Phase I: Heterogeneous Ensemble SCM Learning</text><path d="M339.104 206.82 386.261 179.856 379.159 167.435 418.204 178.073 407.567 217.118 400.465 204.697 353.308 231.661Z" stroke="#172C51" stroke-width="1.33333" stroke-miterlimit="8" fill-rule="evenodd"/><path d="M354.236 281.667 402.837 305.931 409.228 293.13 422.048 331.514 383.664 344.334 390.055 331.533 341.454 307.269Z" stroke="#172C51" stroke-width="1.33333" stroke-miterlimit="8" fill-rule="evenodd"/><text font-family="Times New Roman,Times New Roman_MSFontService,sans-serif" font-weight="700" font-size="32" transform="translate(434.128 80)">Model</text><text font-family="Cambria Math,Cambria Math_MSFontService,sans-serif" font-weight="400" font-size="32" transform="translate(529.128 80)">𝟏</text><text font-family="Times New Roman,Times New Roman_MSFontService,sans-serif" font-weight="700" font-size="32" transform="translate(438.718 276)">Model</text><text font-family="Cambria Math,Cambria Math_MSFontService,sans-serif" font-weight="400" font-size="32" transform="translate(533.718 276)">𝑴</text><path d="M1137.5 138.5 1154.57 138.5 1154.57 333.381 1138.83 333.381" stroke="#000000" stroke-width="3" stroke-miterlimit="8" fill="none" fill-rule="evenodd"/><text font-family="Times New Roman,Times New Roman_MSFontService,sans-serif" font-weight="700" font-size="24" transform="translate(1187.3 188)">Noise</text><text font-family="Times New Roman,Times New Roman_MSFontService,sans-serif" font-weight="700" font-size="24" transform="translate(1159.3 217)">Estimation</text><g><g><g><path d="M24.277 19.9302 13.8726 19.9302C11.653 19.9302 9.57207 19.2366 7.67615 17.8031 4.71667 15.5373 1.75719 11.5605 1.75719 6.8438 1.75719 2.68203 4.62419-0.508661 8.78596-0.508661 11.8842-0.508661 14.6587 0.832354 17.017 3.51438 19.2829 6.10393 20.3927 8.97092 20.3927 12.1616 20.3927 14.0575 19.9765 15.6298 19.1441 16.9245L23.8146 16.9245C25.433 16.9245 26.2191 17.4794 26.2191 18.6355 26.2191 19.699 25.433 19.9302 24.277 19.9302M4.94788 5.59527C4.94788 8.32354 5.59527 10.8206 6.93628 13.0402 8.5085 15.6298 10.5431 16.9245 13.0864 16.9245 15.7685 16.9245 17.1095 15.5373 17.1095 12.7165 17.1095 11.5605 16.8783 10.2195 16.4159 8.64723 15.491 5.36406 13.965 3.05196 11.8379 1.80343 10.7744 1.15605 9.75703 0.832354 8.8322 0.832354 6.28889 0.832354 4.94788 2.91324 4.94788 5.59527Z" transform="matrix(1.01112 0 0 -1 1175.29 272.873)"/><path d="M17.8494 23.8146 18.6355 24.6469 11.5605 32.0919 4.48546 24.6469 5.27157 23.8146 11.5605 28.5775Z" transform="matrix(1.01112 0 0 -1 1176.95 271.393)"/><path d="M7.74824 21.7735C6.0809 21.7735 4.6751 21.1851 3.46546 20.0081 2.25582 18.8312 1.63465 17.4581 1.63465 15.7907 1.63465 14.6792 2.45198 13.8618 3.46546 13.8618 4.44625 13.8618 5.26357 14.7119 5.26357 15.6926 5.26357 16.7715 4.47894 17.5234 3.43277 17.5234 3.33469 17.5234 3.2693 17.5234 3.20391 17.4908 3.82508 19.0927 5.26357 20.4985 7.32323 20.4985 10.0041 20.4985 11.5079 18.1773 11.5079 15.3657 11.5079 13.1753 10.3964 10.8214 8.17325 8.33672L2.02697 1.4058C1.60196 0.915404 1.63465 0.948097 1.63465 0L13.7638 0 14.7119 5.88474 13.633 5.88474C13.3714 4.2174 13.1426 3.2693 12.9464 2.97506 12.783 2.8116 11.8022 2.74621 10.0041 2.74621L4.54433 2.74621 7.71555 5.85205C9.93867 7.9444 12.7503 10.2002 13.6984 11.9329 14.3522 13.0772 14.6792 14.2215 14.6792 15.3657 14.6792 19.2235 11.6714 21.7735 7.74824 21.7735Z" transform="matrix(1.01112 0 0 -1 1203.53 253.775)"/><path d="M12.9791 20.3024C12.9791 21.1851 12.5214 21.6101 11.6387 21.6101 10.7233 21.6101 9.8079 20.6947 9.8079 19.7793 9.8079 18.8966 10.2329 18.4715 11.1156 18.4715 12.031 18.4715 12.9791 19.3869 12.9791 20.3024M8.72903 14.5157C6.9963 14.5157 5.52512 13.208 4.80587 12.0637 3.92316 10.6579 3.49815 9.77521 3.49815 9.38289 3.49815 9.08865 3.66162 8.95788 3.98855 8.95788 4.15201 8.95788 4.25009 8.99058 4.34817 9.02327 4.51163 9.28481 4.60971 9.51366 4.70779 9.67713 5.75397 12.2599 7.06169 13.5349 8.63095 13.5349 9.21943 13.5349 9.51366 13.0772 9.51366 12.1945 9.51366 11.7041 9.44828 11.1483 9.28481 10.5598L6.27706-1.50388C5.81935-3.40007 4.51163-5.72128 2.45198-5.72128 2.15774-5.72128 1.8635-5.68858 1.56926-5.5905 2.38659-5.26357 2.77891-4.6751 2.77891-3.85777 2.77891-3.00776 2.3212-2.58275 1.43849-2.58275 0.392316-2.58275-0.425009-3.53084-0.425009-4.57702-0.425009-6.01551 0.98079-6.70207 2.51736-6.70207 3.92316-6.70207 5.23088-6.21167 6.44052-5.23088 7.58478-4.28278 8.30402-3.07314 8.66365-1.66734L11.6387 10.1675C11.7368 10.5925 11.8022 11.0175 11.8022 11.4099 11.8022 13.208 10.5271 14.5157 8.72903 14.5157Z" transform="matrix(1.01112 0 0 -1 1203.53 284.295)"/><path d="M4.54433 3.46546C3.49815 3.46546 2.8116 2.68083 2.8116 1.63465 2.8116 0.65386 3.56354-0.163465 4.54433-0.163465 5.00203-0.163465 5.39435-0.032693 5.68858 0.261544L5.72128 0C5.72128-2.05966 5.03472-3.82508 3.66162-5.23088 3.43277-5.49242 3.30199-5.68858 3.30199-5.81935 3.30199-6.14628 3.43277-6.30975 3.727-6.30975 4.02124-6.30975 4.41356-5.91743 4.96934-5.16549 6.0809-3.59623 6.63668-1.8635 6.63668 0 6.63668 1.73273 6.04821 3.46546 4.54433 3.46546Z" transform="matrix(1.01112 0 0 -1 1217.15 284.295)"/><path d="M21.4793 14.4503C19.485 14.4503 17.7523 13.4695 16.2811 11.5406 15.9869 13.4695 14.7445 14.4503 12.5214 14.4503 10.5925 14.4503 8.92519 13.6003 7.55208 11.8676 7.29054 13.3061 6.14628 14.4503 4.47894 14.4503 3.13853 14.4503 2.15774 13.3714 1.47119 11.2464 1.11156 10.2002 0.948097 9.57905 0.948097 9.38289 0.948097 9.08865 1.11156 8.92519 1.47119 8.92519 1.63465 8.92519 1.73273 8.95788 1.83081 9.02327 1.99427 9.31751 2.09235 9.54636 2.15774 9.77521 2.74621 12.2599 3.49815 13.5022 4.38086 13.5022 4.96934 13.5022 5.26357 13.0445 5.26357 12.1291 5.26357 11.7041 5.10011 10.8214 4.74049 9.48097L2.87698 2.05966C2.74621 1.66734 2.58275 0.817325 2.58275 0.621167 2.58275-0.032693 2.94237-0.359623 3.62892-0.359623 4.28278-0.359623 4.74049-0.032693 4.96934 0.621167 5.00203 0.784632 5.23088 1.60196 5.5905 3.00776L6.27706 5.91743 7.25785 9.64444C7.61747 10.3964 8.17325 11.1483 8.8925 11.9329 9.84059 12.9791 11.0175 13.5022 12.4233 13.5022 13.5022 13.5022 14.0253 12.783 14.0253 11.3772 14.0253 10.9522 13.8618 10.0694 13.5349 8.72903L12.6522 5.00203C12.4233 4.05393 11.9003 2.09235 11.6387 1.04618 11.606 0.817325 11.5733 0.686553 11.5733 0.621167 11.5733-0.032693 11.9329-0.359623 12.6522-0.359623 13.0118-0.359623 13.2734-0.261544 13.5022-0.032693 13.9926 0.457702 14.0253 0.686553 14.2215 1.56926L16.1503 9.31751C16.2484 9.74251 16.7061 10.4945 17.4908 11.5406 18.4715 12.8483 19.7793 13.5022 21.3812 13.5022 22.4601 13.5022 22.9832 12.783 22.9832 11.3772 22.9832 10.1021 22.3293 7.71555 20.9889 4.2174 20.6947 3.46546 20.5639 2.84429 20.5639 2.41928 20.5639 0.817325 21.7735-0.359623 23.3428-0.359623 24.814-0.359623 25.9256 0.457702 26.7429 2.09235 27.3967 3.40007 27.7237 4.28278 27.7237 4.70779 27.7237 5.00203 27.5602 5.16549 27.2006 5.16549 26.9717 5.1328 26.7429 4.83856 26.5794 4.47894 25.8602 1.89619 24.814 0.588474 23.4082 0.588474 22.9832 0.588474 22.7543 0.915404 22.7543 1.53657 22.7543 2.02697 22.9505 2.74621 23.3428 3.7597 24.6832 7.25785 25.3371 9.64444 25.3371 10.8868 25.3371 13.208 23.8005 14.4503 21.4793 14.4503Z" transform="matrix(1.01112 0 0 -1 1226.34 284.295)"/></g></g></g><rect x="29.5001" y="430.5" width="862" height="55" stroke="#FFFFFF" stroke-linejoin="round" stroke-miterlimit="10" fill="#FFFFFF"/><text font-family="Times New Roman,Times New Roman_MSFontService,sans-serif" font-weight="700" font-size="37.3333" transform="translate(38.4647 471)">Phase II: Structure</text><text font-family="Times New Roman,Times New Roman_MSFontService,sans-serif" font-weight="700" font-size="37.3333" transform="translate(344.791 471)">-</text><text font-family="Times New Roman,Times New Roman_MSFontService,sans-serif" font-weight="700" font-size="37.3333" transform="translate(357.291 471)">Aware Adversarial Optimization</text><path d="M169.5 513C169.5 502.23 178.678 493.5 190 493.5 201.322 493.5 210.5 502.23 210.5 513 210.5 523.77 201.322 532.5 190 532.5 178.678 532.5 169.5 523.77 169.5 513Z" stroke="#AFABAB" stroke-width="1.33333" stroke-miterlimit="8" fill="#AFABAB" fill-rule="evenodd"/><path d="M1.10477-1.01463 32.7652 33.4587 30.5556 35.4879-1.10477 1.01463ZM33.9601 30.3246 36.7335 39.9972 27.3314 36.4124Z" transform="matrix(-1 0 0 1 179.234 529.5)"/><text font-family="Times New Roman,Times New Roman_MSFontService,sans-serif" font-weight="700" font-size="26.6667" transform="translate(234.794 666)">…</text><text font-family="Times New Roman,Times New Roman_MSFontService,sans-serif" font-weight="700" font-size="24" transform="translate(180.348 521)">R</text><path d="M73.5001 659.5C73.5001 648.454 82.4544 639.5 93.5001 639.5 104.546 639.5 113.5 648.454 113.5 659.5 113.5 670.546 104.546 679.5 93.5001 679.5 82.4544 679.5 73.5001 670.546 73.5001 659.5Z" stroke="#AFABAB" stroke-width="1.33333" stroke-miterlimit="8" fill="#AFABAB" fill-rule="evenodd"/><text font-family="Times New Roman,Times New Roman_MSFontService,sans-serif" font-weight="700" font-size="24" transform="translate(78.1951 667)">A1</text><path d="M134.5 658.5C134.5 647.454 143.454 638.5 154.5 638.5 165.546 638.5 174.5 647.454 174.5 658.5 174.5 669.546 165.546 678.5 154.5 678.5 143.454 678.5 134.5 669.546 134.5 658.5Z" stroke="#AFABAB" stroke-width="1.33333" stroke-miterlimit="8" fill="#AFABAB" fill-rule="evenodd"/><text font-family="Times New Roman,Times New Roman_MSFontService,sans-serif" font-weight="700" font-size="24" transform="translate(139.256 666)">A2</text><path d="M193.5 659.5C193.5 648.454 202.454 639.5 213.5 639.5 224.546 639.5 233.5 648.454 233.5 659.5 233.5 670.546 224.546 679.5 213.5 679.5 202.454 679.5 193.5 670.546 193.5 659.5Z" stroke="#AFABAB" stroke-width="1.33333" stroke-miterlimit="8" fill="#AFABAB" fill-rule="evenodd"/><text font-family="Times New Roman,Times New Roman_MSFontService,sans-serif" font-weight="700" font-size="24" transform="translate(198.399 667)">A3</text><path d="M266.5 658.5C266.5 647.454 275.678 638.5 287 638.5 298.322 638.5 307.5 647.454 307.5 658.5 307.5 669.546 298.322 678.5 287 678.5 275.678 678.5 266.5 669.546 266.5 658.5Z" stroke="#AFABAB" stroke-width="1.33333" stroke-miterlimit="8" fill="#AFABAB" fill-rule="evenodd"/><text font-family="Times New Roman,Times New Roman_MSFontService,sans-serif" font-weight="700" font-size="24" transform="translate(270.023 666)">AN</text><path d="M121.5 589C121.5 578.231 130.678 569.5 142 569.5 153.322 569.5 162.5 578.231 162.5 589 162.5 599.77 153.322 608.5 142 608.5 130.678 608.5 121.5 599.77 121.5 589Z" stroke="#AFABAB" stroke-width="1.33333" stroke-miterlimit="8" fill="#AFABAB" fill-rule="evenodd"/><g><g><g><path d="M14.5197 15.3853C14.5197 15.0706 14.8738 14.559 15.5034 13.772 16.133 12.9851 16.4478 12.0801 16.4478 11.057 16.4478 9.91588 15.8969 7.98779 14.7558 5.27273 13.9294 3.38399 12.0407 0.708277 9.71913 0.708277 7.90909 0.708277 7.00407 1.77069 7.00407 3.93487 7.00407 5.46947 7.7517 8.18453 9.24695 12.0801 9.56174 12.9064 9.71913 13.5753 9.71913 14.0475 9.71913 16.0149 8.38128 17.3921 6.41384 17.3921 4.6825 17.3921 3.30529 16.4084 2.32157 14.441 1.5346 12.8277 1.14111 11.8046 1.14111 11.2931 1.14111 10.9389 1.33786 10.7422 1.77069 10.7422 2.28223 10.7422 2.36092 10.9783 2.51832 11.5292 3.42334 14.6771 4.6825 16.251 6.29579 16.251 6.80733 16.251 7.08277 15.8969 7.08277 15.1493 7.08277 14.5197 6.88602 13.654 6.45319 12.5129 4.99729 8.61737 4.24966 5.981 4.24966 4.5251 4.24966 2.51832 4.91859 1.14111 6.25644 0.393487 7.31886-0.157395 8.42062-0.432836 9.56174-0.432836 13.0638-0.432836 15.5034 3.34464 16.5265 6.37449 17.7856 10.0733 18.4152 12.7883 18.4152 14.5197 18.4152 16.4478 17.7856 17.3921 16.5658 17.3921 15.5821 17.3921 14.5197 16.3691 14.5197 15.3853Z" transform="matrix(1.09267 0 0 -1 124.027 595.392)"/><path d="M11.0444 17.2759C11.0444 18.0271 10.6549 18.3887 9.90376 18.3887 9.12481 18.3887 8.34586 17.6098 8.34586 16.8308 8.34586 16.0797 8.70752 15.718 9.45864 15.718 10.2376 15.718 11.0444 16.497 11.0444 17.2759M7.42782 12.3519C5.95338 12.3519 4.7015 11.2391 4.08947 10.2654 3.33834 9.06917 2.97669 8.31804 2.97669 7.98421 2.97669 7.73383 3.11579 7.62255 3.39398 7.62255 3.53308 7.62255 3.61654 7.65037 3.7 7.67819 3.8391 7.90075 3.92255 8.09549 4.00601 8.23458 4.89624 10.4323 6.00902 11.5173 7.34436 11.5173 7.84511 11.5173 8.09549 11.1278 8.09549 10.3767 8.09549 9.95939 8.03985 9.48646 7.90075 8.98571L5.34135-1.2797C4.95188-2.89323 3.8391-4.86842 2.08647-4.86842 1.83609-4.86842 1.58571-4.8406 1.33534-4.75714 2.03083-4.47895 2.36466-3.97819 2.36466-3.28271 2.36466-2.5594 1.97519-2.19774 1.22406-2.19774 0.333834-2.19774-0.361654-3.00451-0.361654-3.89474-0.361654-5.11879 0.834586-5.70301 2.1421-5.70301 3.33834-5.70301 4.45113-5.28571 5.48045-4.45113 6.45413-3.64436 7.06616-2.61504 7.37218-1.4188L9.90376 8.65188C9.98721 9.01353 10.0429 9.37518 10.0429 9.70902 10.0429 11.2391 8.95789 12.3519 7.42782 12.3519Z" transform="matrix(1.09267 0 0 -1 146.299 601.294)"/></g></g></g><path d="M1.09387-1.02638 30.3278 30.13 28.14 32.1827-1.09387 1.02638ZM31.4891 26.9834 34.3658 36.6257 24.9259 33.1416Z" transform="matrix(-1 0 0 1 127.866 603.5)"/><path d="M143.886 607.927 153.425 630.983 150.653 632.13 141.114 609.073ZM155.623 628.45 154.906 638.487 147.307 631.89Z"/><path d="M206.718 524.624 283.987 632.06 281.551 633.811 204.282 526.376ZM285.546 629.09 287.148 639.024 278.24 634.345Z"/><text font-family="Times New Roman,Times New Roman_MSFontService,sans-serif" font-weight="700" font-size="26.6667" transform="translate(33.6518 555)">Latent</text><text font-family="Times New Roman,Times New Roman_MSFontService,sans-serif" font-weight="700" font-size="26.6667" transform="translate(29.8985 586)">Update</text><path d="M167.452 523.201 167.069 526.995 165.938 530.832 164.191 534.397 161.926 537.593 159.225 540.314 156.159 542.447 152.796 543.856 149.515 544.327 146.488 544.761 146.976 544.626 144.044 545.854 144.414 545.651 141.671 547.559 141.949 547.327 139.492 549.802 139.848 549.312 137.883 553.108 134.331 551.269 136.437 547.201 139.238 544.38 142.303 542.247 145.667 540.838 148.947 540.367 151.974 539.933 151.486 540.068 154.418 538.839 154.049 539.043 156.791 537.134 156.514 537.367 158.97 534.892 158.758 535.144 160.835 532.216 160.67 532.493 162.271 529.224 162.149 529.538 163.179 526.043 163.108 526.408 163.472 522.799ZM142.432 552.152 133 561.694 131.026 548.423Z" fill="#0070C0"/><path d="M0.10515-1.99723 4.85587-1.74712 9.66294-1.00359 14.3827 0.192895 18.9798 1.80845 23.4196 3.81013 27.7029 6.18561 35.4532 11.8134 42.0163 18.4853 44.8033 22.1948 47.1568 26.0482 49.063 30.0523 50.4802 34.1788 51.364 38.3971 51.6586 42.5273 51.6557 42.4907 52.0145 46.4857 51.9563 46.1543 53.0024 50.1181 52.9043 49.8345 54.5917 53.7358 54.4714 53.5013 56.7544 57.3088 56.6243 57.1178 59.4571 60.8004 59.3246 60.6452 62.6614 64.1715 62.5297 64.0445 66.3246 67.3833 66.1948 67.2784 70.402 70.3984 70.2096 70.2722 79.6777 75.7309 79.4848 75.6332 84.654 77.9094 84.5221 77.8568 89.9204 79.7892 89.7839 79.7458 95.3655 81.3032 95.1633 81.2579 102.585 82.5202 101.915 86.4635 94.3904 85.1839 88.6398 83.5793 83.1071 81.5988 77.7737 79.2503 68.1119 73.68 63.7451 70.4416 59.8188 66.9872 56.349 63.3202 53.3833 59.465 50.9729 55.445 49.1732 51.2843 48.0457 47.0118 47.6701 42.8302 47.3838 38.8168 47.4213 39.0847 46.5907 35.1209 46.6566 35.3603 45.3168 31.459 45.4026 31.6691 43.5899 27.8616 43.6889 28.0443 41.4397 24.3618 41.5475 24.5206 38.8983 20.9944 39.0715 21.1956 32.718 14.7368 32.9687 14.9526 25.4512 9.49389 25.6564 9.62457 21.5521 7.34838 21.7001 7.42261 17.4139 5.49018 17.5728 5.5538 13.1412 3.9964 13.3128 4.0482 8.77199 2.89707 8.95775 2.9349 4.34421 2.22131 4.54477 2.24204-0.10515 1.99723ZM100.766 78.344 112.214 85.3391 99.7489 90.3008Z" fill="#0070C0" transform="matrix(1.83697e-16 1 1 -1.83697e-16 222 523)"/><text font-family="Times New Roman,Times New Roman_MSFontService,sans-serif" font-weight="700" font-size="26.6667" transform="translate(249.414 529)">Ripple</text><text font-family="Times New Roman,Times New Roman_MSFontService,sans-serif" font-weight="700" font-size="26.6667" transform="translate(253.167 561)">Effect</text><path d="M413 517C413 512.029 417.029 508 422 508L569 508C573.971 508 578 512.029 578 517L578 553C578 557.971 573.971 562 569 562L422 562C417.029 562 413 557.971 413 553Z" fill="#F8CBAD" fill-rule="evenodd"/><text font-family="Times New Roman,Times New Roman_MSFontService,sans-serif" font-weight="700" font-size="32" transform="translate(426.63 547)">Init</text><text font-family="Cambria Math,Cambria Math_MSFontService,sans-serif" font-weight="400" font-size="32" transform="translate(484.463 547)">𝒗</text><text font-family="Cambria Math,Cambria Math_MSFontService,sans-serif" font-weight="400" font-size="23.36" transform="translate(503.63 536)">𝟎</text><text font-family="Cambria Math,Cambria Math_MSFontService,sans-serif" font-weight="400" font-size="32" transform="translate(518.956 547)">,</text><text font-family="Cambria Math,Cambria Math_MSFontService,sans-serif" font-weight="400" font-size="32" transform="translate(530.79 547)">𝝀</text><text font-family="Cambria Math,Cambria Math_MSFontService,sans-serif" font-weight="400" font-size="23.36" transform="translate(548.79 536)">𝟎</text><path d="M413 605C413 597.268 419.268 591 427 591L570 591C577.732 591 584 597.268 584 605L584 661C584 668.732 577.732 675 570 675L427 675C419.268 675 413 668.732 413 661Z" fill="#F4B183" fill-rule="evenodd"/><text font-family="Times New Roman,Times New Roman_MSFontService,sans-serif" font-weight="700" font-size="32" transform="translate(430.233 626)">Warm Up</text><text font-family="Times New Roman,Times New Roman_MSFontService,sans-serif" font-weight="700" font-size="32" transform="translate(463.6 664)">Start</text><path d="M639 519.667C639 498.864 655.864 482 676.667 482L961.333 482C982.136 482 999 498.864 999 519.667L999 670.333C999 691.136 982.136 708 961.333 708L676.667 708C655.864 708 639 691.136 639 670.333Z" fill="#FBE5D6" fill-rule="evenodd"/><text font-family="Times New Roman,Times New Roman_MSFontService,sans-serif" font-weight="700" font-size="24" transform="translate(664.382 507)">Update Lagrange Multiplier</text><text font-family="Cambria Math,Cambria Math_MSFontService,sans-serif" font-weight="400" font-size="24" transform="translate(960.616 507)">𝝀</text><text font-family="Times New Roman,Times New Roman_MSFontService,sans-serif" font-weight="700" font-size="24" transform="translate(659.774 673)">C</text><text font-family="Times New Roman,Times New Roman_MSFontService,sans-serif" font-weight="700" font-size="24" transform="translate(677.107 673)">onstraint</text><text font-family="Times New Roman,Times New Roman_MSFontService,sans-serif" font-weight="700" font-size="24" transform="translate(776.007 673)">V</text><text font-family="Times New Roman,Times New Roman_MSFontService,sans-serif" font-weight="700" font-size="24" transform="translate(792.447 673)">iolation</text><text font-family="Times New Roman,Times New Roman_MSFontService,sans-serif" font-weight="700" font-size="24" transform="translate(875.78 673)">Surrogate</text><rect x="666.5" y="547.5" width="142" height="78" stroke="#172C51" stroke-width="1.33333" stroke-miterlimit="8" fill="#C55A11"/><text font-family="Times New Roman,Times New Roman_MSFontService,sans-serif" font-weight="700" font-size="24" transform="translate(681.683 578)">G</text><text font-family="Times New Roman,Times New Roman_MSFontService,sans-serif" font-weight="700" font-size="24" transform="translate(700.349 578)">eometric</text><text font-family="Times New Roman,Times New Roman_MSFontService,sans-serif" font-weight="700" font-size="24" transform="translate(675.683 607)">C</text><text font-family="Times New Roman,Times New Roman_MSFontService,sans-serif" font-weight="700" font-size="24" transform="translate(693.016 607)">onstraints</text><rect x="833.5" y="545.5" width="142" height="78" stroke="#172C51" stroke-width="1.33333" stroke-miterlimit="8" fill="#C55A11"/><text font-family="Times New Roman,Times New Roman_MSFontService,sans-serif" font-weight="700" font-size="24" transform="translate(849.219 576)">S</text><text font-family="Times New Roman,Times New Roman_MSFontService,sans-serif" font-weight="700" font-size="24" transform="translate(862.553 576)">tructural</text><text font-family="Times New Roman,Times New Roman_MSFontService,sans-serif" font-weight="700" font-size="24" transform="translate(842.553 605)">C</text><text font-family="Times New Roman,Times New Roman_MSFontService,sans-serif" font-weight="700" font-size="24" transform="translate(859.886 605)">onstraints</text><path d="M651 544.138C651 539.643 654.643 536 659.138 536L980.862 536C985.357 536 989 539.643 989 544.138L989 633.862C989 638.357 985.357 642 980.862 642L659.138 642C654.643 642 651 638.357 651 633.862Z" stroke="#000000" stroke-width="4" stroke-linecap="square" stroke-miterlimit="8" stroke-dasharray="12 4" fill="none" fill-rule="evenodd"/><g clip-path="url(#clip1)"><g clip-path="url(#clip2)"><g clip-path="url(#clip3)"><path d="M8.5281 6.4143C10.2046 7.25253 12.0632 9.22055 13.1202 11.0063 13.7762 12.0997 14.5415 13.7033 15.4526 15.8535 16.4366 18.1495 17.1655 19.7531 17.7122 20.7371 18.2953 21.8305 19.9718 23.434 21.5754 23.434 22.7051 23.434 23.434 22.6323 23.1425 21.4296 22.9603 20.7371 22.9603 20.2998 23.0696 20.154 23.3247 19.826 23.6892 19.6802 24.1994 19.6802L24.6367 19.7531C25.5478 19.8989 26.2039 20.6278 26.5319 21.9763 27.0421 24.0172 25.4385 24.9647 23.434 24.9647 19.9353 24.9647 16.9469 23.2154 14.4686 19.6802 13.7397 18.6598 12.9379 17.0198 12.0632 14.7237 10.569 10.8241 9.22055 8.38232 7.94498 7.43475 7.28897 6.92452 6.59652 6.45074 5.86762 5.97696 4.81072 5.35739 4.11827 4.81072 3.79027 4.40983 2.62403 2.98848 1.82224 1.71291 1.42135 0.510228L2.22314-0.328004C2.87914 0.874677 3.60804 1.93158 4.44627 2.91559 5.13873 3.75382 6.0134 4.15471 7.0703 4.15471 8.1272 4.15471 9.65789 3.38937 11.5895 1.85869 12.1726 1.27557 13.0473 0.728897 14.2499 0.218669 15.0153-0.109335 16.0722-0.255114 17.4935-0.255114 18.6233-0.255114 20.0082 0.400893 21.5754 1.74935 23.0332 2.95203 24.0536 4.84717 24.6367 7.39831 24.819 8.34587 24.9283 9.11122 24.9283 9.69433L23.762 9.43922C23.5798 8.16365 23.3612 7.21608 23.1789 6.66941 22.5958 4.88361 20.8829 2.87914 18.8055 2.87914 16.8375 2.87914 14.0313 4.2276 12.4277 5.39384 11.553 6.04985 10.241 6.37785 8.5281 6.4143Z" transform="matrix(1.02273 0 0 -1 785.677 699.965)"/><path d="M6.49316 17.2378C9.25018 17.2378 10.8735 15.4857 11.3373 12.0072 11.363 11.7495 11.5176 11.6207 11.7495 11.6207 12.033 11.6207 12.1618 11.8526 12.1618 12.3164L12.1618 17.4439C12.1618 17.9335 12.033 18.1654 11.8011 18.1654 11.6465 18.1654 11.4919 18.0366 11.3373 17.7789L10.5127 16.439C9.37901 17.5212 8.34835 18.1654 6.4674 18.1654 3.65885 18.1654 1.44292 15.8979 1.44292 13.1152 1.44292 10.7446 2.98892 8.99251 4.81834 8.34835L8.16799 7.52382C9.89434 7.08579 11.0281 5.90053 11.0281 3.96804 11.0281 2.03555 9.68821 0.438031 7.75572 0.438031 4.38031 0.438031 2.39629 2.34475 2.26745 5.6171 2.26745 5.849 2.13862 5.97783 1.88096 5.97783 1.59752 5.97783 1.44292 5.74593 1.44292 5.25637L1.44292 0.154599C1.44292-0.334965 1.57176-0.566863 1.82942-0.566863 1.98402-0.566863 2.13862-0.438031 2.29322-0.180366L3.11775 1.15949C4.22571 0 5.7717-0.566863 7.78149-0.566863 9.25018-0.566863 10.487-0.0257665 11.4403 1.03066 12.3937 2.08709 12.8575 3.34965 12.8575 4.84411 12.8575 6.05513 12.4968 7.16309 11.8011 8.16799 11.1054 9.17288 10.152 9.79128 8.99251 10.0747L5.74593 10.8735C4.38031 11.1827 3.27235 12.3937 3.27235 14.017 3.27235 15.8206 4.68951 17.2378 6.49316 17.2378Z" transform="matrix(1.02273 0 0 -1 815.607 705.431)"/><path d="M17.1347 11.4146 17.1347 17.4439C17.1347 17.9335 17.0059 18.1654 16.7482 18.1654 16.5679 18.1654 16.4133 18.0366 16.2587 17.8047L15.0476 16.0268C14.2747 16.8255 13.4501 17.3924 12.5483 17.7531 11.8784 18.0366 11.1569 18.1654 10.3839 18.1654 7.88455 18.1654 5.74593 17.2636 4.01958 15.4084 2.29322 13.5532 1.44292 11.363 1.44292 8.81215 1.44292 6.26126 2.29322 4.07111 3.99381 2.24169 5.72017 0.360731 7.85879-0.566863 10.3839-0.566863 12.2133-0.566863 13.8109 0.0772996 15.1507 1.36563 16.4906 2.65395 17.1347 4.19994 17.1347 6.02937 17.1347 6.3901 16.9801 6.57046 16.6967 6.57046 16.439 6.57046 16.3102 6.4674 16.3102 6.2355 16.3102 6.20973 16.3102 6.1582 16.2844 6.0809 16.1298 2.98892 13.9139 0.438031 10.6931 0.438031 9.73974 0.438031 8.78638 0.695696 7.78149 1.21103 5.41097 2.49935 4.27724 4.97294 4.27724 8.78638 4.27724 12.3937 5.5398 15.1765 7.78149 16.3875 8.78638 16.9028 9.73974 17.1605 10.6673 17.1605 13.8624 17.1605 15.6918 14.2489 16.1298 11.2084 16.1556 10.8735 16.336 10.6931 16.6194 10.6931 17.1347 10.6931 17.1347 10.8992 17.1347 11.4146Z" transform="matrix(1.02273 0 0 -1 830.259 705.431)"/><path d="M4.50914 2.78278 4.50914 16.0268 10.487 0.618396C10.6416 0.206132 10.8477 0 11.0796 0 11.3115 0 11.4919 0.180366 11.6465 0.541097L17.7531 16.2329 17.7531 2.08709C17.7531 1.62329 17.6501 1.31409 17.4697 1.18526 17.2893 1.05643 16.7482 1.00489 15.8464 1.00489L15.1249 1.00489 15.1249 0C15.8206 0.051533 17.0832 0.0772996 18.8869 0.0772996 20.6905 0.0772996 21.9531 0.051533 22.6488 0L22.6488 1.00489 21.9273 1.00489C21.0255 1.00489 20.4844 1.05643 20.304 1.18526 20.1236 1.31409 20.0206 1.62329 20.0206 2.08709L20.0206 15.5114C20.0206 15.9752 20.1236 16.2587 20.304 16.3875 20.4844 16.5163 21.0255 16.5936 21.9273 16.5936L22.6488 16.5936 22.6488 17.5985 18.2427 17.5985C17.547 17.5985 17.4955 17.5728 17.2893 17.0574L11.8011 2.96315 6.36433 16.9801C6.13243 17.4955 6.05513 17.5985 5.35944 17.5985L0.953361 17.5985 0.953361 16.5936 1.67482 16.5936C2.57665 16.5936 3.11775 16.5163 3.29811 16.3875 3.47848 16.2587 3.58155 15.9752 3.58155 15.5114L3.58155 2.78278C3.58155 2.34475 3.47848 1.98402 3.27235 1.64906 2.98892 1.21103 2.21592 1.00489 0.953361 1.00489L0.953361 0 4.04534 0.0772996 7.13733 0 7.13733 1.00489C5.25637 1.00489 4.50914 1.31409 4.50914 2.78278Z" transform="matrix(1.02273 0 0 -1 849.286 705.431)"/></g></g></g><path d="M796 647 809.75 647 809.75 635 837.25 635 837.25 647 851 647 823.5 659Z" fill="#AFABAB" fill-rule="evenodd"/><path d="M846 530 832.5 530 832.5 542 805.5 542 805.5 530 792 530 819 518Z" fill="#AFABAB" fill-rule="evenodd"/><path d="M590.5 567.75 614.5 567.75 614.5 553.5 638.5 582 614.5 610.5 614.5 596.25 590.5 596.25Z" stroke="#172C51" stroke-width="1.33333" stroke-miterlimit="8" fill-rule="evenodd"/><text font-family="Times New Roman,Times New Roman_MSFontService,sans-serif" font-weight="700" font-size="37.3333" transform="translate(485.081 591)">+</text><path d="M1009.5 567.75 1103 567.75 1103 553.5 1131.5 582 1103 610.5 1103 596.25 1009.5 596.25Z" stroke="#172C51" stroke-width="1.33333" stroke-miterlimit="8" fill-rule="evenodd"/><g><g><g><path d="M31.0919 22.0062C31.0919 24.7201 28.437 26.0771 25.4871 26.0771 22.9502 26.0771 20.9443 24.7201 19.4103 22.0062 18.1714 24.7201 16.1064 26.0771 13.0975 26.0771 10.2066 26.0771 7.84673 24.7201 5.95879 22.0652 4.36585 19.7643 3.53988 18.0534 3.53988 16.9324 3.53988 16.4014 3.83487 16.1064 4.42485 16.1064 4.95583 16.1064 5.30982 16.4014 5.42781 16.9324 6.54877 20.3543 9.02669 24.3662 12.9796 24.3662 14.9265 24.3662 15.8705 23.1272 15.8705 20.7083 15.8705 19.4693 14.8085 14.8675 12.7436 6.96176 11.7406 3.0089 9.97065 1.06196 7.43374 1.06196 6.60777 1.06196 5.8408 1.23896 5.19182 1.53395 6.72577 2.12393 7.49274 3.18589 7.49274 4.71984 7.49274 6.25378 6.72577 7.02076 5.13282 7.02076 3.18589 7.02076 1.71094 5.36881 1.71094 3.42188 1.71094 0.707975 4.48384-0.648978 7.37474-0.648978 9.85266-0.648978 11.8586 0.707975 13.4515 3.42188 14.5725 0.707975 16.6964-0.648978 19.7643-0.648978 22.5962-0.648978 24.9561 0.707975 26.8441 3.36288 28.437 5.6638 29.263 7.37474 29.263 8.49571 29.263 9.02669 28.968 9.32168 28.378 9.32168 27.847 9.32168 27.552 9.02669 27.3751 8.49571 26.3721 5.13282 23.7172 1.06196 19.8823 1.06196 17.9354 1.06196 16.9324 2.24192 16.9324 4.66084 16.9324 5.42781 17.2274 7.07975 17.8764 9.73466L19.8823 17.6994C21.0033 22.1242 22.8322 24.3662 25.4281 24.3662 26.2541 24.3662 27.0211 24.1892 27.67 23.8942 26.0771 23.3632 25.3101 22.3012 25.3101 20.7083 25.3101 19.1743 26.1361 18.4074 27.729 18.4074 29.617 18.4074 31.0919 20.1183 31.0919 22.0062Z" transform="matrix(1.03125 0 0 -1 1146 592.384)"/><path d="M20.1467 3.79575 20.1467 6.25673 18.8119 6.25673 18.8119 3.79575C18.8119 2.169 18.3531 1.33477 17.4771 1.33477 16.6429 1.33477 16.1424 2.37756 16.1424 3.21179L16.1424 11.429C16.1424 12.8889 15.9755 13.9734 15.6835 14.7242 14.6825 17.1852 11.8044 18.6868 8.88456 18.6868 5.67277 18.6868 2.50269 16.8932 2.50269 13.8899 2.50269 12.5135 3.21179 11.8044 4.58827 11.8044 5.96475 11.8044 6.63214 12.4718 6.63214 13.8482 6.63214 15.0579 6.00646 15.767 4.71341 15.8921 5.63106 16.9349 7.00754 17.4771 8.80114 17.4771 11.3873 17.4771 12.9723 15.0996 12.9723 12.3883L12.9723 11.0119C9.71879 10.8033 7.25781 10.3028 5.54764 9.51023 2.75296 8.21718 1.33477 6.42358 1.33477 4.04602 1.33477 2.96152 1.75189 2.04387 2.5444 1.33477 3.87917 0.125135 5.71448-0.458827 8.05033-0.458827 10.5113-0.458827 12.2632 0.583962 13.3477 2.71125 13.6397 1.12621 14.8076-0.250269 16.6012-0.250269 18.8119-0.250269 20.1467 1.50162 20.1467 3.79575M8.34231 0.750808C6.42358 0.750808 4.83854 2.169 4.83854 4.08773 4.83854 7.96691 8.88456 9.63537 12.9723 9.84393L12.9723 5.88133C12.9723 3.08665 11.137 0.750808 8.34231 0.750808Z" transform="matrix(1.03125 0 0 -1 1182.81 601.233)"/><path d="M15.6001-0.458827 21.982 0 21.982 1.58504C20.4804 1.58504 19.6044 1.66846 19.2707 1.91873 18.937 2.169 18.7702 2.79467 18.7702 3.75404L18.7702 28.9478 12.5552 28.489 12.5552 26.904C14.0151 26.904 14.9327 26.7788 15.2664 26.5285 15.6001 26.2783 15.7253 25.6943 15.7253 24.735L15.7253 16.2675C14.3905 17.8108 12.722 18.5616 10.7199 18.5616 8.13375 18.5616 5.92304 17.644 4.12944 15.767 2.33585 13.8899 1.41819 11.6375 1.41819 9.0097 1.41819 6.46529 2.25242 4.25458 3.9626 2.37756 5.67277 0.500539 7.75835-0.458827 10.3028-0.458827 12.43-0.458827 14.2236 0.333692 15.6001 1.96044M10.8867 17.3103C12.6803 17.3103 14.1402 16.5178 15.183 14.9327 15.475 14.4739 15.6001 14.0151 15.6001 13.4728L15.6001 5.0471C15.6001 4.50485 15.475 4.04602 15.183 3.58719 14.0151 1.71017 12.43 0.79252 10.4696 0.79252 8.75943 0.79252 7.38295 1.62675 6.29844 3.33692 5.54764 4.58827 5.17223 6.46529 5.17223 8.96798 5.17223 13.5145 6.71556 17.3103 10.8867 17.3103Z" transform="matrix(1.03125 0 0 -1 1204.32 601.233)"/><path d="M16.1841 14.7659C16.1841 14.5573 16.1007 14.2654 15.9338 13.8482L11.9295 3.79575 7.46637 14.8493C7.29952 15.2247 7.2161 15.4333 7.2161 15.475 7.2161 16.1007 8.00862 16.3926 9.59366 16.3926L9.59366 17.9777 4.92196 17.8525C3.92089 17.8108 2.5444 17.8525 0.79252 17.9777L0.79252 16.3926C3.12837 16.3926 3.50377 16.4761 4.08773 14.9744L10.0108 0.417116C10.2193-0.166846 10.553-0.458827 11.0119-0.458827 11.4707-0.458827 11.8044-0.166846 12.0129 0.417116L17.3937 13.7231C17.5606 14.1819 17.7274 14.5573 17.936 14.891 18.5199 15.8921 19.6044 16.3926 21.1895 16.3926L21.1895 17.9777C19.813 17.8525 18.7285 17.8108 17.936 17.8525L14.2236 17.9777 14.2236 16.3926C15.4333 16.3509 16.1841 15.8504 16.1841 14.7659Z" transform="matrix(1.03125 0 0 -1 1228.23 601.233)"/></g></g></g><text font-family="Times New Roman,Times New Roman_MSFontService,sans-serif" font-weight="700" font-size="26.6667" transform="translate(1052.7 622)">Post</text><text font-family="Times New Roman,Times New Roman_MSFontService,sans-serif" font-weight="700" font-size="26.6667" transform="translate(1001.78 654)">Optimization</text><path d="M371 483 371 702.12" stroke="#000000" stroke-width="4" stroke-linecap="square" stroke-miterlimit="8" stroke-dasharray="12 4" fill="none" fill-rule="evenodd"/><path d="M330 539.5 387 539.5 387 532 402 547 387 562 387 554.5 330 554.5Z" fill="#C5E0B4" fill-rule="evenodd"/><path d="M330 586.75 386.5 586.75 386.5 579 402 594.5 386.5 610 386.5 602.25 330 602.25Z" fill="#C5E0B4" fill-rule="evenodd"/><path d="M330 639.5 387 639.5 387 632 402 647 387 662 387 654.5 330 654.5Z" fill="#C5E0B4" fill-rule="evenodd"/><path d="M744.5 137.5C744.5 131.977 749.201 127.5 755 127.5 760.799 127.5 765.5 131.977 765.5 137.5 765.5 143.023 760.799 147.5 755 147.5 749.201 147.5 744.5 143.023 744.5 137.5Z" stroke="#000000" stroke-width="3" stroke-miterlimit="8" fill="#BF9000" fill-rule="evenodd"/><path d="M745.5 167.5C745.5 161.977 750.201 157.5 756 157.5 761.799 157.5 766.5 161.977 766.5 167.5 766.5 173.023 761.799 177.5 756 177.5 750.201 177.5 745.5 173.023 745.5 167.5Z" stroke="#000000" stroke-width="3" stroke-miterlimit="8" fill="#BF9000" fill-rule="evenodd"/><path d="M744.5 106C744.5 100.201 749.201 95.5001 755 95.5001 760.799 95.5001 765.5 100.201 765.5 106 765.5 111.799 760.799 116.5 755 116.5 749.201 116.5 744.5 111.799 744.5 106Z" stroke="#000000" stroke-width="3" stroke-miterlimit="8" fill="#BF9000" fill-rule="evenodd"/><path d="M774.5 121C774.5 115.201 779.201 110.5 785 110.5 790.799 110.5 795.5 115.201 795.5 121 795.5 126.799 790.799 131.5 785 131.5 779.201 131.5 774.5 126.799 774.5 121Z" stroke="#000000" stroke-width="3" stroke-miterlimit="8" fill="#BF9000" fill-rule="evenodd"/><path d="M775.5 154.5C775.5 148.977 780.201 144.5 786 144.5 791.799 144.5 796.5 148.977 796.5 154.5 796.5 160.023 791.799 164.5 786 164.5 780.201 164.5 775.5 160.023 775.5 154.5Z" stroke="#000000" stroke-width="3" stroke-miterlimit="8" fill="#BF9000" fill-rule="evenodd"/><path d="M765.5 106.5 774.866 121.532" stroke="#000000" stroke-width="3" stroke-miterlimit="8" fill="none" fill-rule="evenodd"/><path d="M0 0 9.64651 16.5177" stroke="#000000" stroke-width="3" stroke-miterlimit="8" fill="none" fill-rule="evenodd" transform="matrix(1 0 0 -1 765.5 138.018)"/><path d="M765.5 137.5 776.147 154.419" stroke="#000000" stroke-width="3" stroke-miterlimit="8" fill="none" fill-rule="evenodd"/><path d="M0 0 9.69942 12.9965" stroke="#000000" stroke-width="3" stroke-miterlimit="8" fill="none" fill-rule="evenodd" transform="matrix(1 0 0 -1 766.5 167.497)"/><path d="M0 0 8.69942 46.4335" stroke="#000000" stroke-width="3" stroke-miterlimit="8" fill="none" fill-rule="evenodd" transform="matrix(1 0 0 -1 766.5 167.934)"/><path d="M765.5 106.5 775.866 154.969" stroke="#000000" stroke-width="3" stroke-miterlimit="8" fill="none" fill-rule="evenodd"/><text font-family="Times New Roman,Times New Roman_MSFontService,sans-serif" font-weight="700" font-size="24" transform="translate(742.595 199)">MLP</text><path d="M746.5 335.5C746.5 329.977 750.977 325.5 756.5 325.5 762.023 325.5 766.5 329.977 766.5 335.5 766.5 341.023 762.023 345.5 756.5 345.5 750.977 345.5 746.5 341.023 746.5 335.5Z" stroke="#000000" stroke-width="3" stroke-miterlimit="8" fill="#BF9000" fill-rule="evenodd"/><path d="M747.5 365.5C747.5 359.977 751.977 355.5 757.5 355.5 763.023 355.5 767.5 359.977 767.5 365.5 767.5 371.023 763.023 375.5 757.5 375.5 751.977 375.5 747.5 371.023 747.5 365.5Z" stroke="#000000" stroke-width="3" stroke-miterlimit="8" fill="#BF9000" fill-rule="evenodd"/><path d="M746.5 303.5C746.5 297.977 751.201 293.5 757 293.5 762.799 293.5 767.5 297.977 767.5 303.5 767.5 309.023 762.799 313.5 757 313.5 751.201 313.5 746.5 309.023 746.5 303.5Z" stroke="#000000" stroke-width="3" stroke-miterlimit="8" fill="#BF9000" fill-rule="evenodd"/><path d="M776.5 319C776.5 313.201 781.201 308.5 787 308.5 792.799 308.5 797.5 313.201 797.5 319 797.5 324.799 792.799 329.5 787 329.5 781.201 329.5 776.5 324.799 776.5 319Z" stroke="#000000" stroke-width="3" stroke-miterlimit="8" fill="#BF9000" fill-rule="evenodd"/><path d="M777.5 352.5C777.5 346.977 782.201 342.5 788 342.5 793.799 342.5 798.5 346.977 798.5 352.5 798.5 358.023 793.799 362.5 788 362.5 782.201 362.5 777.5 358.023 777.5 352.5Z" stroke="#000000" stroke-width="3" stroke-miterlimit="8" fill="#BF9000" fill-rule="evenodd"/><path d="M767.5 303.5 776.866 318.532" stroke="#000000" stroke-width="3" stroke-miterlimit="8" fill="none" fill-rule="evenodd"/><path d="M0 0 9.64651 16.5177" stroke="#000000" stroke-width="3" stroke-miterlimit="8" fill="none" fill-rule="evenodd" transform="matrix(1 0 0 -1 766.5 335.018)"/><path d="M766.5 335.5 777.147 352.419" stroke="#000000" stroke-width="3" stroke-miterlimit="8" fill="none" fill-rule="evenodd"/><path d="M0 0 9.69942 12.9965" stroke="#000000" stroke-width="3" stroke-miterlimit="8" fill="none" fill-rule="evenodd" transform="matrix(1 0 0 -1 767.5 365.497)"/><path d="M0 0 8.69942 46.4335" stroke="#000000" stroke-width="3" stroke-miterlimit="8" fill="none" fill-rule="evenodd" transform="matrix(1 0 0 -1 767.5 364.934)"/><path d="M767.5 303.5 777.866 351.969" stroke="#000000" stroke-width="3" stroke-miterlimit="8" fill="none" fill-rule="evenodd"/><text font-family="Times New Roman,Times New Roman_MSFontService,sans-serif" font-weight="700" font-size="24" transform="translate(744.051 397)">MLP</text></g></svg>